<svg xmlns="http://www.w3.org/2000/svg" width="512" height="512" viewBox="0 0 512 512" fill="none">
<rect width="512" height="512" fill="#002147"/>
<g transform="translate(40.421 83.038) scale(0.399)">
<path d="M910.113 11.8262C912.936 9.10449 916.029 7.1368 919.11 6.2423C921.897 5.43318 925.934 5.23686 928.965 8.04077L929.256 8.32121L929.533 8.61541C932.304 11.6854 932.048 15.7211 931.204 18.4906C930.271 21.551 928.271 24.6143 925.533 27.4042C832.086 122.63 698.923 259.662 578.868 383.204C504.068 460.177 434.356 531.914 382.522 585.027C349.782 618.575 339.928 640.114 333.001 656.428C328.87 666.157 325.156 675.072 317.359 682.802C313.142 686.983 308.163 688.071 303.338 687.358C298.936 686.708 294.68 684.569 291.135 682.587C289.03 681.411 287.248 680.421 285.562 679.697C284.11 679.074 283.049 678.797 282.274 678.726C282.232 678.745 282.182 678.765 282.126 678.792C281.651 679.023 280.934 679.456 279.945 680.185C277.967 681.644 275.423 683.896 272.304 686.927C266.082 692.974 258.178 701.525 248.89 711.577L248.89 711.578L248.88 711.589C227.726 734.483 199.781 764.744 170.672 787.655C168.38 789.855 165.315 791.931 161.758 792.701C157.734 793.573 153.384 792.664 149.893 789.155L149.88 789.142L149.867 789.128C146.4 785.598 145.541 781.239 146.45 777.227C147.255 773.675 149.361 770.625 151.584 768.351C174.757 739.436 205.256 711.761 228.33 690.812C238.464 681.61 247.086 673.781 253.188 667.611C256.247 664.518 258.521 661.992 259.998 660.026C260.736 659.043 261.178 658.329 261.414 657.855C261.443 657.796 261.463 657.744 261.482 657.701C261.421 656.919 261.153 655.85 260.545 654.386C259.839 652.689 258.869 650.893 257.715 648.773C255.773 645.202 253.682 640.92 253.076 636.508C252.412 631.678 253.541 626.705 257.76 622.522C265.558 614.792 274.502 611.165 284.26 607.129C300.542 600.394 321.715 590.242 356.12 558.216C457.099 464.22 686.698 234.933 862.245 59.6227C878.704 43.1858 894.687 27.224 910.042 11.8949L910.077 11.8603L910.113 11.8262ZM308.41 632.001C301.77 636.925 294.508 642.902 287.202 650.03L286.182 654.04L290.183 653.066C297.379 645.817 303.423 638.601 308.41 632.001Z" fill="white" stroke="#8D7149" stroke-width="11.4446" stroke-miterlimit="4.28366"/>
<path d="M169.887 11.8262C167.064 9.10449 163.971 7.1368 160.89 6.2423C158.103 5.43318 154.066 5.23686 151.035 8.04077L150.744 8.32121L150.467 8.61541C147.696 11.6854 147.952 15.7211 148.796 18.4906C149.729 21.551 151.729 24.6143 154.467 27.4042C247.914 122.63 381.077 259.662 501.132 383.204C575.932 460.177 645.644 531.914 697.478 585.027C730.218 618.575 740.072 640.114 746.999 656.428C751.13 666.157 754.844 675.072 762.641 682.802C766.858 686.983 771.837 688.071 776.662 687.358C781.064 686.708 785.32 684.569 788.865 682.587C790.97 681.411 792.752 680.421 794.438 679.697C795.89 679.074 796.951 678.797 797.726 678.726C797.768 678.745 797.818 678.765 797.874 678.792C798.349 679.023 799.066 679.456 800.055 680.185C802.033 681.644 804.577 683.896 807.696 686.927C813.918 692.974 821.822 701.525 831.11 711.577L831.11 711.578L831.12 711.589C852.274 734.483 880.219 764.744 909.328 787.655C911.62 789.855 914.685 791.931 918.242 792.701C922.266 793.573 926.616 792.664 930.107 789.155L930.12 789.142L930.133 789.128C933.6 785.598 934.459 781.239 933.55 777.227C932.745 773.675 930.639 770.625 928.416 768.351C905.243 739.436 874.744 711.761 851.67 690.812C841.536 681.61 832.914 673.781 826.812 667.611C823.753 664.518 821.479 661.992 820.002 660.026C819.264 659.043 818.822 658.329 818.586 657.855C818.557 657.796 818.537 657.744 818.518 657.701C818.579 656.919 818.847 655.85 819.455 654.386C820.161 652.689 821.131 650.893 822.285 648.773C824.227 645.202 826.318 640.92 826.924 636.508C827.588 631.678 826.459 626.705 822.24 622.522C814.442 614.792 805.498 611.165 795.74 607.129C779.458 600.394 758.285 590.242 723.88 558.216C622.901 464.22 393.302 234.933 217.755 59.6227C201.296 43.1858 185.313 27.224 169.958 11.8949L169.923 11.8603L169.887 11.8262ZM771.59 632.001C778.23 636.925 785.492 642.902 792.798 650.03L793.818 654.04L789.817 653.066C782.621 645.817 776.577 638.601 771.59 632.001Z" fill="white" stroke="#8D7149" stroke-width="11.4446" stroke-miterlimit="4.28366"/>
<path d="M911.702 13.474C914.337 10.9327 917.118 9.20392 919.749 8.44026C922.178 7.73497 925.224 7.69837 927.418 9.72711L927.627 9.9297L927.828 10.1425C929.833 12.364 929.75 15.4082 929.014 17.8235C928.217 20.4377 926.458 23.1929 923.899 25.8007C830.447 121.031 697.279 258.069 577.227 381.609C502.425 458.583 432.715 530.318 380.883 583.429C347.906 617.22 337.907 639.014 330.893 655.533C326.735 665.325 323.175 673.814 315.748 681.177C312.107 684.786 307.88 685.716 303.673 685.094C299.719 684.51 295.78 682.562 292.252 680.59C290.17 679.426 288.28 678.373 286.464 677.594C284.644 676.813 283.159 676.425 281.925 676.418C282.038 676.418 281.815 676.398 281.125 676.734C280.479 677.048 279.638 677.568 278.586 678.343C276.484 679.894 273.852 682.231 270.708 685.286C264.432 691.387 256.479 699.991 247.207 710.025L247.205 710.029L247.198 710.035C225.999 732.979 198.141 763.138 169.168 785.924C167.059 787.971 164.325 789.804 161.273 790.464C157.948 791.184 154.412 790.452 151.515 787.541L151.508 787.532L151.501 787.525C148.624 784.596 147.931 781.051 148.683 777.733C149.373 774.688 151.228 771.971 153.292 769.879C176.341 741.095 206.742 713.503 229.868 692.507C239.984 683.322 248.659 675.444 254.815 669.22C257.898 666.103 260.259 663.491 261.829 661.401C262.613 660.356 263.142 659.519 263.462 658.875C263.805 658.187 263.788 657.961 263.787 658.07C263.792 656.832 263.419 655.338 262.658 653.507C261.898 651.68 260.867 649.776 259.727 647.679C257.794 644.125 255.888 640.161 255.343 636.197C254.764 631.981 255.73 627.758 259.372 624.148C266.801 616.784 275.314 613.306 285.135 609.244C301.655 602.411 323.063 592.114 357.68 559.891C458.696 465.86 688.334 236.534 863.862 61.2426C880.321 44.8057 896.304 28.8437 911.659 13.5149L911.68 13.494L911.702 13.474ZM317.074 623.149C307.962 629.15 296.596 637.597 285.142 648.845L283.026 657.165L291.347 655.137C302.699 643.777 311.255 632.48 317.343 623.416C317.518 623.155 317.689 622.894 317.86 622.636C317.601 622.806 317.337 622.975 317.074 623.149Z" fill="white" stroke="white" stroke-width="6.86677" stroke-miterlimit="4.28366"/>
<path d="M168.298 13.474C165.663 10.9327 162.882 9.20392 160.251 8.44026C157.822 7.73497 154.776 7.69837 152.582 9.72711L152.373 9.9297L152.172 10.1425C150.167 12.364 150.25 15.4082 150.986 17.8235C151.783 20.4377 153.542 23.1929 156.101 25.8007C249.553 121.031 382.721 258.069 502.773 381.609C577.575 458.583 647.285 530.318 699.117 583.429C732.094 617.22 742.093 639.014 749.107 655.533C753.265 665.325 756.825 673.814 764.252 681.177C767.893 684.786 772.12 685.716 776.327 685.094C780.281 684.51 784.22 682.562 787.748 680.59C789.83 679.426 791.72 678.373 793.536 677.594C795.356 676.813 796.841 676.425 798.075 676.418C797.962 676.418 798.185 676.398 798.875 676.734C799.521 677.048 800.362 677.568 801.414 678.343C803.516 679.894 806.148 682.231 809.292 685.286C815.568 691.387 823.521 699.991 832.793 710.025L832.795 710.029L832.802 710.035C854.001 732.979 881.859 763.138 910.832 785.924C912.941 787.971 915.675 789.804 918.727 790.464C922.052 791.184 925.588 790.452 928.485 787.541L928.492 787.532L928.499 787.525C931.376 784.596 932.069 781.051 931.317 777.733C930.627 774.688 928.772 771.971 926.708 769.879C903.659 741.095 873.258 713.503 850.132 692.507C840.016 683.322 831.341 675.444 825.185 669.22C822.102 666.103 819.741 663.491 818.171 661.401C817.387 660.356 816.858 659.519 816.538 658.875C816.195 658.187 816.212 657.961 816.213 658.07C816.208 656.832 816.581 655.338 817.342 653.507C818.102 651.68 819.133 649.776 820.273 647.679C822.206 644.125 824.112 640.161 824.657 636.197C825.236 631.981 824.27 627.758 820.628 624.148C813.199 616.784 804.686 613.306 794.865 609.244C778.345 602.411 756.937 592.114 722.32 559.891C621.304 465.86 391.666 236.534 216.138 61.2426C199.679 44.8057 183.696 28.8437 168.341 13.5149L168.32 13.494L168.298 13.474ZM762.926 623.149C772.038 629.15 783.404 637.597 794.858 648.845L796.974 657.165L788.653 655.137C777.301 643.777 768.745 632.48 762.657 623.416C762.482 623.155 762.311 622.894 762.14 622.636C762.399 622.806 762.663 622.975 762.926 623.149Z" fill="white" stroke="white" stroke-width="6.86677" stroke-miterlimit="4.28366"/>
<path fill-rule="evenodd" clip-rule="evenodd" d="M355.664 57.2407C359.205 60.7293 366.288 64.2178 366.288 64.2178C369.829 78.1719 373.37 82.2899 391.075 88.6374C400.696 95.5027 403.363 106.702 406.245 118.803C409.15 130.996 412.272 144.106 422.945 154.621C444.212 175.571 539.815 175.864 539.815 175.864C539.815 175.864 635.417 175.598 656.684 154.648C667.357 144.133 670.48 131.024 673.384 118.83C676.266 106.729 678.934 95.5299 688.554 88.6647C706.259 82.3172 709.801 78.1991 713.342 64.2451C713.342 64.2451 720.424 60.7565 723.965 57.268C725.775 55.5058 727.506 50.291 727.506 43.3139H713.33C699.153 43.3139 696.216 50.291 692.127 57.268C692.127 57.268 685.013 50.291 667.307 50.291H660.225C658.102 50.5251 655.354 52.4456 654.883 54.5118C654.854 54.637 649.602 64.2451 649.602 64.2451C647.941 67.5164 650.173 69.2539 652.283 70.8959C654.672 72.7559 656.904 74.4934 653.143 78.1991C650.515 80.7874 652.196 82.445 654.031 84.2538C655.319 85.5244 656.684 86.8697 656.684 88.6647C649.601 95.6417 642.519 102.619 631.896 102.619C625.593 102.619 618.781 97.1885 612.398 92.0993C604.77 86.0183 597.753 80.4243 592.944 85.1625C585.861 92.1396 578.779 92.1396 575.238 92.1396C561.313 92.1396 553.991 88.6779 553.991 80.1069C553.991 71.5359 563.099 78.2503 568.204 79.7428C573.881 81.4026 578.779 82.8346 578.779 76.6184C578.779 75.1058 581.442 74.058 584.459 72.871C588.399 71.3204 592.944 69.5323 592.944 66.1604C592.944 64.6266 590.188 63.4979 587.107 62.2361C583.197 60.6345 578.763 58.8184 578.779 55.6872C578.796 52.1381 575.307 47.9733 571.731 47.9733C570.246 47.9733 569.378 48.7023 568.362 49.5548C566.934 50.7546 565.214 52.1987 561.073 52.1987C561.073 46.891 563.53 45.0716 566.084 43.1797C568.85 41.131 571.731 38.9974 571.731 32.257C563.718 32.257 561.517 34.2555 559.657 35.9445C558.298 37.1785 557.121 38.2474 553.991 38.2508C550.618 38.2545 549.582 36.4154 548.452 34.4104C547.098 32.009 545.611 29.3697 539.815 29.3731C534.019 29.3697 532.531 32.0009 531.178 34.3949C530.048 36.3938 529.011 38.2273 525.638 38.2236C522.509 38.2202 521.331 37.1513 519.972 35.9172C518.112 34.2282 515.912 32.2298 507.898 32.2298C507.898 38.9701 510.779 41.1038 513.545 43.1525C516.099 45.0443 518.556 46.8638 518.556 52.1715C514.415 52.1715 512.696 50.7273 511.267 49.5275C510.252 48.6751 509.383 47.946 507.898 47.946C504.323 47.946 500.833 52.1109 500.85 55.66C500.866 58.7912 496.432 60.6072 492.522 62.2089C489.441 63.4706 486.686 64.5993 486.686 66.1331C486.686 69.505 491.23 71.2931 495.171 72.8437C498.187 74.0307 500.85 75.0785 500.85 76.5911C500.85 82.8073 505.748 81.3754 511.426 79.7155C516.531 78.223 525.638 71.4814 525.638 80.0796C525.638 88.6779 518.316 92.1123 504.391 92.1123C500.85 92.1123 493.768 92.1123 486.686 85.1353C481.876 80.397 474.859 85.9911 467.232 92.072C460.848 97.1612 454.037 102.591 447.733 102.591C437.11 102.591 430.028 95.6145 422.945 88.6374C422.945 86.8424 424.31 85.4971 425.598 84.2265C427.433 82.4177 429.114 80.7602 426.487 78.1719C422.725 74.4662 424.957 72.7287 427.347 70.8686C429.456 69.2266 431.688 67.4891 430.028 64.2178C430.028 64.2178 424.775 54.6098 424.746 54.4846C424.275 52.4184 421.527 50.4978 419.404 50.2637H412.322C394.617 50.2637 387.503 57.2407 387.503 57.2407C383.43 50.291 380.452 43.2867 366.3 43.2867H352.123C352.123 50.2637 353.855 55.4785 355.664 57.2407ZM539.815 140.952C522.097 140.952 458.357 140.952 430.028 152.109C423.489 140.952 472.521 134.002 539.703 134.002C606.885 134.002 656.156 140.952 649.602 152.136C621.248 141.006 557.532 140.952 539.815 140.952ZM539.815 147.821C522.097 147.821 444.974 148.029 451.274 158.78C461.898 164.823 511.426 168.86 539.815 168.86C568.204 168.86 617.707 165.425 628.355 158.808C635.413 148.966 557.532 147.821 539.815 147.821Z" fill="white"/>
<path d="M130.826 456.337C124.525 445.586 201.649 445.378 219.366 445.378C237.084 445.378 314.965 446.523 307.907 456.364C297.259 462.982 247.755 466.416 219.366 466.416C190.977 466.416 141.45 462.379 130.826 456.337Z" fill="#8D7149"/>
<path d="M219.366 438.508C201.649 438.508 137.908 438.508 109.579 449.666C103.041 438.508 152.073 431.558 219.255 431.558C286.437 431.558 335.708 438.508 329.153 449.693C300.8 438.562 237.084 438.508 219.366 438.508Z" fill="#8D7149"/>
<path fill-rule="evenodd" clip-rule="evenodd" d="M45.8393 361.774C45.8393 361.774 38.757 358.286 35.2159 354.797C33.4063 353.035 31.6748 347.82 31.6748 340.843H45.8514C60.0038 340.843 62.9813 347.848 67.0543 354.797C67.0543 354.797 74.1683 347.82 91.8739 347.82H98.9561C101.078 348.054 103.827 349.975 104.298 352.041C104.327 352.166 109.579 361.774 109.579 361.774C111.24 365.046 109.008 366.783 106.898 368.425C104.509 370.285 102.277 372.023 106.038 375.729C108.666 378.317 106.985 379.974 105.15 381.783C103.862 383.054 102.497 384.399 102.497 386.194C109.579 393.171 116.662 400.148 127.285 400.148C133.588 400.148 140.4 394.718 146.783 389.629C154.411 383.548 161.428 377.954 166.237 382.692C173.32 389.669 180.402 389.669 183.943 389.669C197.868 389.669 205.19 386.235 205.19 377.636C205.19 369.038 196.082 375.78 190.977 377.272C185.3 378.932 180.402 380.364 180.402 374.148C180.402 372.635 177.739 371.587 174.722 370.4C170.782 368.85 166.237 367.062 166.237 363.69C166.237 362.156 168.993 361.027 172.074 359.766C175.984 358.164 180.418 356.348 180.402 353.217C180.385 349.668 183.874 345.503 187.45 345.503C188.935 345.503 189.803 346.232 190.818 347.084C192.247 348.284 193.967 349.728 198.108 349.728C198.108 344.42 195.651 342.601 193.097 340.709C190.331 338.66 187.45 336.527 187.45 329.786C195.463 329.786 197.664 331.785 199.524 333.474C200.883 334.708 202.06 335.777 205.19 335.78C208.563 335.784 209.599 333.95 210.729 331.952C212.083 329.558 213.57 326.926 219.366 326.93C225.162 326.926 226.65 329.566 228.003 331.967C229.133 333.972 230.17 335.811 233.543 335.807C236.672 335.804 237.85 334.735 239.209 333.501C241.069 331.812 243.269 329.814 251.283 329.814C251.283 336.554 248.402 338.688 245.636 340.736C243.082 342.628 240.625 344.448 240.625 349.755C244.766 349.755 246.485 348.311 247.914 347.111C248.929 346.259 249.798 345.53 251.283 345.53C254.858 345.53 258.347 349.695 258.331 353.244C258.315 356.375 262.749 358.191 266.659 359.793C269.74 361.055 272.495 362.183 272.495 363.717C272.495 367.089 267.951 368.877 264.01 370.428C260.994 371.615 258.331 372.662 258.331 374.175C258.331 380.391 253.433 378.959 247.755 377.299C242.65 375.807 233.543 369.093 233.543 377.664C233.543 386.235 240.865 389.696 254.79 389.696C258.331 389.696 265.413 389.696 272.495 382.719C277.305 377.981 284.322 383.575 291.949 389.656C298.333 394.745 305.144 400.175 311.448 400.175C322.071 400.175 329.153 393.198 336.235 386.221C336.235 384.426 334.871 383.081 333.583 381.81C331.748 380.002 330.067 378.344 332.694 375.756C336.456 372.05 334.224 370.313 331.834 368.453C329.725 366.811 327.493 365.073 329.153 361.802C329.153 361.802 334.406 352.194 334.435 352.068C334.906 350.002 337.654 348.082 339.777 347.848H346.859C364.564 347.848 371.679 354.825 371.679 354.825C375.767 347.848 378.705 340.871 392.881 340.871H407.058C407.058 347.848 405.326 353.062 403.517 354.825C399.976 358.313 392.893 361.802 392.893 361.802C389.352 375.756 385.811 379.874 368.106 386.221C358.485 393.087 355.818 404.286 352.936 416.387C350.031 428.58 346.909 441.69 336.235 452.205C314.969 473.155 219.366 473.421 219.366 473.421C219.366 473.421 123.763 473.128 102.497 452.177C91.8238 441.663 88.7014 428.553 85.7971 416.36C82.9148 404.258 80.2474 393.059 70.6271 386.194C52.9215 379.847 49.3804 375.729 45.8393 361.774ZM109.579 449.666C137.908 438.508 201.649 438.508 219.366 438.508C237.084 438.508 300.8 438.562 329.153 449.693C335.708 438.508 286.437 431.558 219.255 431.558C152.073 431.558 103.041 438.508 109.579 449.666ZM219.366 445.378C201.649 445.378 124.525 445.586 130.826 456.337C141.45 462.379 190.977 466.416 219.366 466.416C247.755 466.416 297.259 462.982 307.907 456.364C314.965 446.523 237.084 445.378 219.366 445.378Z" fill="white"/>
<path d="M219.366 473.421L219.374 475.71H219.393C219.405 475.71 219.423 475.709 219.446 475.709C219.494 475.709 219.563 475.709 219.655 475.708C219.84 475.707 220.112 475.705 220.468 475.701C221.179 475.694 222.223 475.681 223.558 475.657C226.226 475.609 230.059 475.516 234.724 475.339C244.05 474.985 256.715 474.295 270.057 472.946C283.386 471.599 297.451 469.587 309.555 466.579C321.534 463.602 332.046 459.545 337.842 453.835C349.046 442.797 352.274 429.044 355.162 416.917C358.063 404.739 360.586 394.557 369.192 388.261C377.882 385.129 383.547 382.394 387.436 378.477C391.241 374.643 393.134 369.897 394.851 363.368C394.938 363.323 395.031 363.276 395.128 363.225C395.871 362.831 396.898 362.268 398.042 361.592C400.283 360.267 403.142 358.406 405.123 356.455L405.122 356.454C406.461 355.144 407.48 352.93 408.173 350.41C408.892 347.794 409.347 344.54 409.347 340.87V338.582H392.881C385.383 338.582 380.527 340.442 376.998 343.502C374.352 345.796 372.563 348.707 370.983 351.446C369.961 350.786 368.586 350.008 366.825 349.238C362.54 347.366 356.021 345.559 346.858 345.559H339.65L339.525 345.572C337.961 345.745 336.361 346.493 335.103 347.448C333.943 348.328 332.756 349.629 332.284 351.247C332.255 351.302 332.221 351.369 332.18 351.446C332.037 351.715 331.832 352.096 331.584 352.554C331.089 353.469 330.431 354.679 329.773 355.887C329.116 357.094 328.458 358.299 327.966 359.201C327.719 359.652 327.514 360.028 327.37 360.291C327.298 360.422 327.243 360.525 327.204 360.596C327.185 360.631 327.17 360.658 327.16 360.676C327.155 360.685 327.151 360.692 327.148 360.696C327.147 360.699 327.146 360.701 327.146 360.702V360.703L327.145 360.704L327.128 360.734L327.112 360.766C326.566 361.843 326.272 362.93 326.286 364.021C326.301 365.122 326.629 366.081 327.105 366.895C327.985 368.396 329.467 369.51 330.429 370.259C331.051 370.743 331.524 371.115 331.895 371.482C332.263 371.847 332.374 372.061 332.405 372.152C332.411 372.169 332.449 372.23 332.354 372.47C332.233 372.776 331.905 373.32 331.088 374.125C330.271 374.93 329.63 375.815 329.296 376.813C328.945 377.862 328.987 378.878 329.294 379.799C329.582 380.664 330.08 381.374 330.541 381.929C331.001 382.482 331.535 383.006 331.976 383.44C332.651 384.106 333.155 384.613 333.516 385.129C333.602 385.253 333.672 385.368 333.729 385.474C326.878 392.197 320.59 397.887 311.447 397.887C308.92 397.887 306.076 396.784 302.915 394.867C299.775 392.964 296.594 390.432 293.376 387.866C289.637 384.885 285.747 381.767 282.145 380.062C280.318 379.197 278.375 378.598 276.418 378.661C274.379 378.727 272.493 379.508 270.889 381.089C264.466 387.416 258.16 387.407 254.79 387.407C247.931 387.407 243.092 386.539 240.036 384.882C238.551 384.076 237.534 383.11 236.875 381.995C236.215 380.879 235.832 379.473 235.832 377.663C235.832 376.774 235.953 376.262 236.063 375.992C236.115 375.865 236.159 375.804 236.179 375.781C236.196 375.761 236.205 375.755 236.212 375.751C236.289 375.706 236.771 375.545 238.134 375.916C239.389 376.258 240.843 376.891 242.443 377.609C243.947 378.284 245.648 379.068 247.113 379.496C248.512 379.905 249.967 380.332 251.321 380.623C252.656 380.91 254.087 381.112 255.421 380.966C256.815 380.813 258.261 380.257 259.293 378.912C260.205 377.724 260.568 376.205 260.613 374.542C260.722 374.453 260.901 374.324 261.18 374.164C262.044 373.667 263.285 373.173 264.849 372.558C266.76 371.805 269.119 370.888 270.981 369.673C272.816 368.476 274.784 366.586 274.784 363.717C274.784 362.593 274.266 361.713 273.72 361.104C273.188 360.513 272.521 360.049 271.893 359.68C270.646 358.947 269.013 358.284 267.526 357.675C265.515 356.851 263.652 356.079 262.277 355.178C260.842 354.237 260.618 353.602 260.62 353.256V353.255C260.632 350.782 259.457 348.33 257.866 346.537C256.284 344.753 253.943 343.241 251.283 343.241C248.874 343.241 247.421 344.536 246.442 345.358C245.726 345.96 245.151 346.431 244.341 346.799C244.023 346.943 243.649 347.076 243.2 347.188C243.41 346.37 243.717 345.759 244.058 345.264C244.741 344.272 245.677 343.555 246.998 342.576C248.349 341.576 250.092 340.309 251.413 338.286C252.771 336.207 253.572 333.529 253.572 329.813V327.524H251.283C247.101 327.524 244.234 328.044 242.091 328.897C239.901 329.77 238.632 330.933 237.67 331.807C236.964 332.448 236.553 332.804 236.027 333.063C235.547 333.3 234.829 333.517 233.54 333.519C232.325 333.52 231.777 333.21 231.428 332.908C230.961 332.505 230.602 331.916 229.997 330.843C229.344 329.685 228.429 328.009 226.733 326.723C224.973 325.388 222.626 324.64 219.367 324.642L219.368 324.641H219.365V324.642C216.108 324.64 213.762 325.385 212.002 326.716C210.305 327.998 209.39 329.67 208.737 330.825C208.133 331.895 207.774 332.48 207.308 332.882C206.958 333.183 206.409 333.493 205.192 333.491C203.903 333.49 203.186 333.273 202.706 333.036C202.181 332.777 201.769 332.421 201.062 331.779C200.101 330.906 198.831 329.742 196.642 328.87C194.499 328.017 191.632 327.497 187.45 327.497H185.161V329.786C185.161 333.501 185.961 336.179 187.319 338.259C188.641 340.282 190.383 341.548 191.734 342.549C193.055 343.527 193.991 344.244 194.675 345.236C195.016 345.731 195.321 346.343 195.531 347.161C195.082 347.05 194.709 346.915 194.392 346.771C193.582 346.404 193.006 345.933 192.29 345.331C191.311 344.509 189.859 343.214 187.45 343.214C184.79 343.214 182.449 344.726 180.866 346.51C179.276 348.303 178.102 350.755 178.113 353.228V353.229C178.115 353.575 177.89 354.21 176.455 355.15C175.08 356.051 173.218 356.823 171.206 357.647C169.719 358.256 168.086 358.919 166.84 359.652C166.212 360.022 165.545 360.486 165.014 361.077C164.467 361.686 163.948 362.565 163.948 363.689C163.948 366.559 165.917 368.449 167.752 369.646C169.614 370.86 171.972 371.778 173.884 372.53C175.448 373.146 176.688 373.64 177.553 374.137C177.831 374.297 178.009 374.425 178.118 374.515C178.164 376.178 178.528 377.697 179.44 378.886C180.472 380.23 181.917 380.786 183.312 380.938C184.646 381.084 186.076 380.883 187.411 380.596C188.765 380.304 190.22 379.878 191.619 379.469C193.086 379.04 194.787 378.254 196.291 377.577C197.892 376.856 199.346 376.221 200.602 375.878C201.966 375.505 202.445 375.667 202.52 375.711C202.526 375.715 202.536 375.72 202.553 375.741C202.572 375.765 202.617 375.827 202.669 375.954C202.78 376.226 202.9 376.743 202.9 377.637C202.9 379.454 202.517 380.863 201.857 381.98C201.199 383.096 200.182 384.061 198.698 384.864C195.643 386.518 190.805 387.38 183.943 387.38C180.573 387.38 174.267 387.389 167.844 381.062C166.239 379.481 164.355 378.7 162.315 378.634C160.358 378.571 158.414 379.17 156.588 380.034C152.986 381.739 149.095 384.858 145.356 387.839C142.138 390.404 138.957 392.936 135.817 394.84C132.656 396.756 129.813 397.859 127.285 397.859C118.143 397.859 111.855 392.17 105.003 385.446C105.06 385.34 105.131 385.226 105.218 385.102C105.578 384.585 106.082 384.079 106.757 383.413C107.197 382.979 107.732 382.454 108.192 381.901C108.653 381.347 109.151 380.636 109.439 379.771C109.746 378.851 109.787 377.835 109.437 376.786C109.103 375.788 108.462 374.903 107.645 374.098C106.827 373.292 106.499 372.749 106.378 372.442C106.283 372.203 106.321 372.142 106.327 372.125C106.358 372.034 106.471 371.82 106.839 371.455C107.21 371.088 107.682 370.716 108.305 370.231C109.266 369.483 110.748 368.37 111.628 366.868C112.104 366.055 112.431 365.095 112.446 363.993C112.461 362.902 112.167 361.815 111.62 360.738L111.604 360.707L111.588 360.677V360.676L111.587 360.675C111.586 360.674 111.585 360.672 111.584 360.67C111.582 360.665 111.578 360.658 111.573 360.649C111.563 360.631 111.549 360.604 111.529 360.568C111.491 360.498 111.434 360.395 111.362 360.264C111.219 360.001 111.014 359.625 110.768 359.174C110.275 358.272 109.618 357.068 108.96 355.86C108.302 354.652 107.643 353.441 107.148 352.526C106.901 352.068 106.696 351.687 106.553 351.419C106.511 351.341 106.476 351.274 106.447 351.219C105.975 349.601 104.789 348.301 103.63 347.421C102.371 346.465 100.772 345.718 99.207 345.545L99.082 345.531H91.874C82.711 345.531 76.1937 347.339 71.9082 349.212C70.1471 349.981 68.7705 350.759 67.748 351.419C66.1704 348.687 64.379 345.779 61.7314 343.484C58.1994 340.423 53.3405 338.555 45.8516 338.555H29.3857V340.844C29.3858 344.513 29.8401 347.767 30.5596 350.383C31.2526 352.902 32.2707 355.117 33.6094 356.427V356.428C35.5899 358.379 38.4494 360.24 40.6904 361.564C41.834 362.24 42.8619 362.803 43.6045 363.197C43.7012 363.249 43.794 363.295 43.8809 363.341C45.5976 369.87 47.4918 374.616 51.2969 378.449C55.1861 382.367 60.8504 385.102 69.541 388.234C78.1467 394.531 80.6699 404.712 83.5703 416.89C86.4587 429.016 89.6868 442.77 100.891 453.808C106.686 459.517 117.198 463.577 129.177 466.557C141.28 469.568 155.346 471.581 168.676 472.933C182.017 474.285 194.683 474.979 204.009 475.335C208.673 475.513 212.506 475.606 215.175 475.655C216.509 475.68 217.552 475.694 218.264 475.701C218.619 475.705 218.892 475.707 219.076 475.708C219.168 475.709 219.239 475.709 219.286 475.709C219.31 475.709 219.328 475.71 219.34 475.71H219.357L219.366 473.421ZM219.366 473.421L219.359 475.71H219.373L219.366 473.421Z" stroke="#8D7149" stroke-width="4.57784"/>
<path d="M772.151 457.204C765.851 446.453 842.974 446.245 860.692 446.245C878.409 446.245 956.29 447.39 949.232 457.231C938.584 463.849 889.081 467.284 860.692 467.284C832.302 467.284 782.775 463.246 772.151 457.204Z" fill="#8D7149"/>
<path d="M860.692 439.375C842.974 439.375 779.234 439.375 750.905 450.533C744.366 439.375 793.398 432.426 860.58 432.426C927.762 432.426 977.033 439.375 970.478 450.56C942.125 439.43 878.409 439.375 860.692 439.375Z" fill="#8D7149"/>
<path fill-rule="evenodd" clip-rule="evenodd" d="M687.164 362.642C687.164 362.642 680.082 359.153 676.541 355.665C674.731 353.902 673 348.688 673 341.71H687.177C701.329 341.71 704.306 348.715 708.379 355.665C708.379 355.665 715.493 348.688 733.199 348.688H740.281C742.404 348.922 745.152 350.842 745.623 352.908C745.652 353.034 750.905 362.642 750.905 362.642C752.565 365.913 750.333 367.65 748.224 369.292C745.834 371.152 743.602 372.89 747.364 376.596C749.991 379.184 748.31 380.842 746.475 382.65C745.187 383.921 743.822 385.266 743.822 387.061C750.905 394.038 757.987 401.015 768.61 401.015C774.914 401.015 781.725 395.585 788.109 390.496C795.736 384.415 802.753 378.821 807.563 383.559C814.645 390.536 821.727 390.536 825.268 390.536C839.193 390.536 846.515 387.102 846.515 378.503C846.515 369.905 837.408 376.647 832.302 378.139C826.625 379.799 821.727 381.231 821.727 375.015C821.727 373.502 819.064 372.455 816.048 371.268C812.107 369.717 807.563 367.929 807.563 364.557C807.563 363.023 810.318 361.894 813.399 360.633C817.309 359.031 821.743 357.215 821.727 354.084C821.71 350.535 825.2 346.37 828.775 346.37C830.26 346.37 831.128 347.099 832.144 347.951C833.572 349.151 835.292 350.595 839.433 350.595C839.433 345.288 836.976 343.468 834.422 341.576C831.656 339.528 828.775 337.394 828.775 330.654C836.788 330.654 838.989 332.652 840.849 334.341C842.208 335.575 843.385 336.644 846.515 336.647C849.888 336.651 850.925 334.818 852.055 332.819C853.408 330.425 854.896 327.794 860.692 327.797C866.488 327.794 867.975 330.433 869.329 332.834C870.459 334.839 871.495 336.678 874.868 336.675C877.998 336.671 879.175 335.602 880.534 334.368C882.394 332.679 884.595 330.681 892.608 330.681C892.608 337.421 889.727 339.555 886.961 341.604C884.407 343.495 881.95 345.315 881.95 350.623C886.091 350.623 887.811 349.178 889.239 347.979C890.255 347.126 891.123 346.397 892.608 346.397C896.183 346.397 899.673 350.562 899.656 354.111C899.64 357.242 904.074 359.058 907.984 360.66C911.065 361.922 913.821 363.05 913.821 364.584C913.821 367.956 909.276 369.744 905.336 371.295C902.319 372.482 899.656 373.53 899.656 375.042C899.656 381.258 894.758 379.826 889.081 378.167C883.976 376.674 874.868 369.96 874.868 378.531C874.868 387.102 882.19 390.563 896.115 390.563C899.656 390.563 906.738 390.563 913.821 383.586C918.63 378.848 925.647 384.442 933.275 390.523C939.658 395.612 946.47 401.043 952.773 401.043C963.396 401.043 970.478 394.066 977.561 387.089C977.561 385.294 976.196 383.948 974.908 382.678C973.073 380.869 971.392 379.211 974.02 376.623C977.781 372.917 975.549 371.18 973.16 369.32C971.05 367.678 968.818 365.94 970.478 362.669C970.478 362.669 975.731 353.061 975.76 352.936C976.231 350.869 978.979 348.949 981.102 348.715H988.184C1005.89 348.715 1013 355.692 1013 355.692C1017.09 348.715 1020.03 341.738 1034.21 341.738H1048.38C1048.38 348.715 1046.65 353.93 1044.84 355.692C1041.3 359.18 1034.22 362.669 1034.22 362.669C1030.68 376.623 1027.14 380.741 1009.43 387.089C999.81 393.954 997.143 405.153 994.261 417.254C991.357 429.447 988.234 442.557 977.561 453.072C956.294 474.022 860.692 474.288 860.692 474.288C860.692 474.288 765.089 473.995 743.822 453.045C733.149 442.53 730.027 429.42 727.122 417.227C724.24 405.126 721.573 393.927 711.952 387.061C694.247 380.714 690.706 376.596 687.164 362.642ZM750.905 450.533C779.234 439.375 842.974 439.375 860.692 439.375C878.409 439.375 942.125 439.43 970.478 450.56C977.033 439.375 927.762 432.426 860.58 432.426C793.398 432.426 744.366 439.375 750.905 450.533ZM860.692 446.245C842.974 446.245 765.851 446.453 772.151 457.204C782.775 463.246 832.302 467.284 860.692 467.284C889.081 467.284 938.584 463.849 949.232 457.231C956.29 447.39 878.409 446.245 860.692 446.245Z" fill="white"/>
<path d="M860.691 474.288L860.699 476.577H860.718C860.73 476.577 860.748 476.576 860.771 476.576C860.819 476.576 860.889 476.576 860.98 476.575C861.165 476.574 861.438 476.572 861.793 476.568C862.504 476.561 863.548 476.549 864.883 476.524C867.551 476.476 871.384 476.383 876.049 476.206C885.375 475.853 898.04 475.162 911.382 473.813C924.712 472.466 938.776 470.455 950.88 467.446C962.859 464.469 973.371 460.412 979.167 454.702C990.371 443.664 993.599 429.911 996.487 417.784C999.388 405.606 1001.91 395.424 1010.52 389.128C1019.21 385.996 1024.87 383.261 1028.76 379.344C1032.57 375.511 1034.46 370.764 1036.18 364.235C1036.26 364.19 1036.36 364.143 1036.45 364.092C1037.2 363.698 1038.22 363.135 1039.37 362.459C1041.61 361.134 1044.47 359.273 1046.45 357.322L1046.45 357.321C1047.79 356.012 1048.8 353.797 1049.5 351.277C1050.22 348.661 1050.67 345.407 1050.67 341.737V339.449H1034.21C1026.71 339.449 1021.85 341.309 1018.32 344.369C1015.68 346.663 1013.89 349.574 1012.31 352.313C1011.29 351.653 1009.91 350.875 1008.15 350.105C1003.86 348.233 997.347 346.426 988.184 346.426H980.976L980.851 346.439C979.286 346.612 977.686 347.36 976.428 348.315C975.268 349.196 974.081 350.496 973.609 352.114C973.581 352.169 973.546 352.236 973.505 352.313C973.362 352.582 973.157 352.963 972.909 353.421C972.415 354.336 971.757 355.546 971.099 356.754C970.441 357.962 969.784 359.166 969.291 360.068C969.045 360.519 968.839 360.895 968.695 361.158C968.624 361.289 968.568 361.393 968.529 361.463C968.51 361.498 968.495 361.525 968.485 361.543C968.48 361.552 968.476 361.559 968.474 361.563C968.472 361.566 968.471 361.568 968.471 361.569V361.57L968.47 361.571L968.453 361.602L968.438 361.633C967.891 362.71 967.597 363.797 967.611 364.888C967.626 365.989 967.954 366.949 968.431 367.762C969.31 369.263 970.792 370.377 971.754 371.126C972.377 371.611 972.849 371.982 973.22 372.35C973.588 372.715 973.699 372.928 973.73 373.02C973.736 373.037 973.774 373.098 973.68 373.337C973.558 373.643 973.231 374.187 972.413 374.992C971.596 375.797 970.955 376.683 970.621 377.681C970.27 378.729 970.312 379.745 970.619 380.666C970.907 381.531 971.405 382.242 971.866 382.796C972.326 383.349 972.86 383.873 973.301 384.308C973.976 384.974 974.48 385.48 974.841 385.996C974.927 386.12 974.998 386.235 975.055 386.341C968.203 393.064 961.915 398.754 952.772 398.754C950.245 398.754 947.402 397.651 944.24 395.734C941.1 393.831 937.919 391.299 934.701 388.733C930.962 385.753 927.072 382.634 923.47 380.929C921.643 380.064 919.7 379.465 917.743 379.528C915.704 379.594 913.819 380.375 912.214 381.956C905.791 388.283 899.485 388.274 896.115 388.274C889.256 388.274 884.417 387.406 881.361 385.749C879.876 384.944 878.859 383.977 878.2 382.862C877.54 381.746 877.157 380.34 877.157 378.53C877.157 377.641 877.279 377.129 877.389 376.859C877.44 376.733 877.485 376.672 877.504 376.648C877.521 376.628 877.531 376.622 877.537 376.618C877.614 376.573 878.096 376.412 879.459 376.783C880.714 377.125 882.168 377.758 883.769 378.477C885.272 379.152 886.973 379.935 888.438 380.363C889.838 380.772 891.292 381.199 892.646 381.49C893.982 381.777 895.412 381.979 896.746 381.833C898.141 381.68 899.586 381.124 900.618 379.779C901.53 378.591 901.893 377.073 901.938 375.409C902.047 375.32 902.226 375.192 902.505 375.031C903.369 374.534 904.61 374.04 906.174 373.425C908.085 372.673 910.444 371.755 912.307 370.54C914.141 369.343 916.109 367.454 916.109 364.584C916.109 363.46 915.591 362.58 915.045 361.972C914.514 361.38 913.846 360.916 913.218 360.547C911.971 359.814 910.338 359.151 908.852 358.542C906.84 357.718 904.977 356.946 903.603 356.045C902.168 355.104 901.944 354.469 901.945 354.123V354.122C901.957 351.649 900.782 349.197 899.191 347.404C897.609 345.62 895.268 344.109 892.608 344.108C890.2 344.108 888.747 345.403 887.768 346.226C887.051 346.827 886.476 347.298 885.666 347.666C885.349 347.81 884.975 347.943 884.525 348.055C884.735 347.237 885.042 346.626 885.383 346.131C886.066 345.139 887.002 344.422 888.323 343.443C889.674 342.443 891.417 341.176 892.738 339.153C894.097 337.074 894.897 334.396 894.897 330.681V328.392H892.608C888.426 328.392 885.559 328.911 883.416 329.765C881.227 330.637 879.957 331.801 878.995 332.674C878.289 333.315 877.878 333.672 877.353 333.931C876.872 334.168 876.155 334.384 874.865 334.386C873.65 334.387 873.102 334.077 872.753 333.775C872.286 333.372 871.927 332.783 871.322 331.71C870.67 330.552 869.754 328.876 868.059 327.59C866.298 326.255 863.951 325.507 860.692 325.509L860.693 325.508H860.69V325.509C857.433 325.507 855.088 326.252 853.327 327.583C851.631 328.865 850.715 330.538 850.062 331.692C849.458 332.762 849.099 333.347 848.633 333.749C848.283 334.05 847.735 334.36 846.518 334.358C845.229 334.357 844.511 334.14 844.031 333.903C843.506 333.644 843.094 333.288 842.388 332.646C841.426 331.773 840.156 330.609 837.967 329.737C835.824 328.884 832.957 328.364 828.775 328.364H826.486V330.653C826.486 334.369 827.286 337.046 828.645 339.126C829.966 341.149 831.708 342.415 833.06 343.416C834.381 344.394 835.316 345.111 836 346.104C836.341 346.598 836.647 347.211 836.856 348.028C836.408 347.917 836.034 347.783 835.717 347.639C834.907 347.271 834.332 346.8 833.615 346.198C832.636 345.376 831.184 344.081 828.775 344.081C826.116 344.081 823.774 345.593 822.191 347.377C820.601 349.17 819.427 351.622 819.438 354.095V354.096C819.44 354.442 819.215 355.077 817.78 356.018C816.406 356.918 814.543 357.691 812.531 358.515C811.044 359.124 809.411 359.787 808.165 360.52C807.537 360.889 806.87 361.353 806.339 361.944C805.792 362.553 805.274 363.432 805.273 364.557C805.273 367.426 807.243 369.316 809.077 370.513C810.94 371.727 813.298 372.645 815.209 373.397C816.773 374.013 818.013 374.507 818.878 375.004C819.156 375.164 819.334 375.292 819.443 375.382C819.489 377.046 819.854 378.564 820.766 379.753C821.798 381.097 823.242 381.653 824.637 381.806C825.971 381.952 827.401 381.75 828.736 381.463C830.091 381.172 831.545 380.745 832.944 380.336C834.411 379.907 836.112 379.121 837.616 378.444C839.217 377.724 840.671 377.088 841.927 376.745C843.291 376.372 843.77 376.534 843.845 376.578C843.851 376.582 843.861 376.588 843.878 376.608C843.898 376.632 843.942 376.694 843.994 376.821C844.105 377.093 844.226 377.61 844.226 378.504C844.226 380.322 843.842 381.73 843.183 382.848C842.524 383.963 841.508 384.928 840.023 385.731C836.968 387.386 832.13 388.247 825.269 388.247C821.899 388.247 815.592 388.256 809.169 381.929C807.564 380.348 805.68 379.567 803.641 379.501C801.683 379.438 799.74 380.037 797.913 380.901C794.311 382.607 790.421 385.725 786.682 388.706C783.464 391.272 780.282 393.804 777.143 395.707C773.981 397.624 771.138 398.727 768.61 398.727C759.468 398.727 753.18 393.037 746.328 386.313C746.385 386.207 746.456 386.093 746.543 385.969C746.903 385.453 747.407 384.946 748.082 384.28C748.522 383.846 749.057 383.322 749.518 382.769C749.979 382.214 750.477 381.503 750.765 380.639C751.071 379.718 751.113 378.702 750.762 377.653C750.428 376.655 749.787 375.77 748.97 374.965C748.152 374.16 747.824 373.616 747.703 373.31C747.608 373.07 747.647 373.009 747.652 372.992C747.684 372.901 747.796 372.687 748.164 372.322C748.535 371.955 749.007 371.583 749.63 371.099C750.591 370.35 752.074 369.237 752.953 367.735C753.429 366.922 753.757 365.962 753.771 364.86C753.786 363.77 753.492 362.683 752.945 361.605L752.93 361.574L752.913 361.544V361.543L752.912 361.542C752.912 361.541 752.91 361.539 752.909 361.537C752.907 361.533 752.903 361.525 752.898 361.517C752.889 361.498 752.874 361.471 752.854 361.436C752.816 361.365 752.759 361.262 752.688 361.131C752.544 360.868 752.339 360.492 752.093 360.041C751.6 359.139 750.943 357.935 750.285 356.728C749.627 355.519 748.968 354.309 748.474 353.394C748.226 352.935 748.021 352.555 747.878 352.286C747.836 352.208 747.801 352.141 747.772 352.086C747.3 350.468 746.114 349.168 744.955 348.288C743.696 347.333 742.097 346.585 740.532 346.412L740.407 346.398H733.199C724.036 346.398 717.519 348.206 713.233 350.079C711.472 350.849 710.096 351.626 709.073 352.286C707.496 349.554 705.704 346.646 703.057 344.352C699.525 341.29 694.666 339.422 687.177 339.422H670.711V341.711C670.711 345.38 671.165 348.634 671.885 351.25C672.578 353.77 673.596 355.984 674.935 357.294V357.295C676.915 359.246 679.775 361.107 682.016 362.432C683.159 363.108 684.187 363.671 684.93 364.064C685.026 364.116 685.119 364.162 685.206 364.208C686.923 370.737 688.817 375.483 692.622 379.316C696.511 383.234 702.176 385.97 710.866 389.102C719.472 395.398 721.995 405.579 724.896 417.757C727.784 429.884 731.012 443.637 742.216 454.675C748.011 460.384 758.523 464.444 770.502 467.424C782.606 470.435 796.671 472.449 810.001 473.8C823.343 475.152 836.008 475.846 845.334 476.202C849.998 476.38 853.831 476.473 856.5 476.522C857.834 476.547 858.878 476.561 859.589 476.568C859.944 476.572 860.217 476.574 860.401 476.575C860.494 476.576 860.564 476.576 860.611 476.576C860.635 476.576 860.653 476.577 860.665 476.577H860.683L860.691 474.288ZM860.691 474.288L860.685 476.577H860.698L860.691 474.288Z" stroke="#8D7149" stroke-width="4.57784"/>
<path d="M451.274 158.78C444.974 148.029 522.097 147.821 539.815 147.821C557.532 147.821 635.413 148.966 628.355 158.808C617.707 165.425 568.204 168.86 539.815 168.86C511.426 168.86 461.898 164.823 451.274 158.78Z" fill="#8D7149"/>
<path d="M539.815 140.952C522.097 140.952 458.357 140.952 430.028 152.109C423.489 140.952 472.521 134.002 539.703 134.002C606.885 134.002 656.156 140.952 649.602 152.136C621.248 141.006 557.532 140.952 539.815 140.952Z" fill="#8D7149"/>
<path fill-rule="evenodd" clip-rule="evenodd" d="M366.288 64.2178C366.288 64.2178 359.205 60.7293 355.664 57.2407C353.855 55.4785 352.123 50.2637 352.123 43.2867H366.3C380.452 43.2867 383.43 50.291 387.503 57.2407C387.503 57.2407 394.617 50.2637 412.322 50.2637H419.404C421.527 50.4978 424.275 52.4184 424.746 54.4846C424.775 54.6098 430.028 64.2178 430.028 64.2178C431.688 67.4891 429.456 69.2266 427.347 70.8686C424.957 72.7287 422.725 74.4662 426.487 78.1719C429.114 80.7602 427.433 82.4177 425.598 84.2265C424.31 85.4971 422.945 86.8424 422.945 88.6374C430.028 95.6145 437.11 102.591 447.733 102.591C454.037 102.591 460.848 97.1612 467.232 92.072C474.859 85.9911 481.876 80.397 486.686 85.1353C493.768 92.1123 500.85 92.1123 504.391 92.1123C518.316 92.1123 525.638 88.6779 525.638 80.0796C525.638 71.4814 516.531 78.223 511.426 79.7155C505.748 81.3754 500.85 82.8073 500.85 76.5911C500.85 75.0785 498.187 74.0307 495.171 72.8437C491.23 71.2931 486.686 69.505 486.686 66.1331C486.686 64.5993 489.441 63.4706 492.522 62.2089C496.432 60.6072 500.866 58.7912 500.85 55.66C500.833 52.1109 504.323 47.946 507.898 47.946C509.383 47.946 510.252 48.6751 511.267 49.5275C512.696 50.7273 514.415 52.1715 518.556 52.1715C518.556 46.8638 516.099 45.0443 513.545 43.1525C510.779 41.1038 507.898 38.9701 507.898 32.2298C515.912 32.2298 518.112 34.2282 519.972 35.9172C521.331 37.1513 522.509 38.2202 525.638 38.2236C529.011 38.2273 530.048 36.3938 531.178 34.3949C532.531 32.0009 534.019 29.3697 539.815 29.3731C545.611 29.3697 547.098 32.009 548.452 34.4104C549.582 36.4154 550.618 38.2545 553.991 38.2508C557.121 38.2474 558.298 37.1785 559.657 35.9445C561.517 34.2555 563.718 32.257 571.731 32.257C571.731 38.9974 568.85 41.131 566.084 43.1797C563.53 45.0716 561.073 46.891 561.073 52.1987C565.214 52.1987 566.934 50.7546 568.362 49.5548C569.378 48.7023 570.246 47.9733 571.731 47.9733C575.307 47.9733 578.796 52.1381 578.779 55.6872C578.763 58.8184 583.197 60.6345 587.107 62.2361C590.188 63.4979 592.944 64.6266 592.944 66.1604C592.944 69.5323 588.399 71.3204 584.459 72.871C581.442 74.058 578.779 75.1058 578.779 76.6184C578.779 82.8346 573.881 81.4026 568.204 79.7428C563.099 78.2503 553.991 71.5359 553.991 80.1069C553.991 88.6779 561.313 92.1396 575.238 92.1396C578.779 92.1396 585.861 92.1396 592.944 85.1625C597.753 80.4243 604.77 86.0183 612.398 92.0993C618.781 97.1885 625.593 102.619 631.896 102.619C642.519 102.619 649.601 95.6417 656.684 88.6647C656.684 86.8697 655.319 85.5244 654.031 84.2538C652.196 82.445 650.515 80.7874 653.143 78.1991C656.904 74.4934 654.672 72.7559 652.283 70.8959C650.173 69.2539 647.941 67.5164 649.602 64.2451C649.602 64.2451 654.854 54.637 654.883 54.5118C655.354 52.4456 658.102 50.5251 660.225 50.291H667.307C685.013 50.291 692.127 57.268 692.127 57.268C696.216 50.291 699.153 43.3139 713.33 43.3139H727.506C727.506 50.291 725.775 55.5058 723.965 57.268C720.424 60.7565 713.342 64.2451 713.342 64.2451C709.801 78.1991 706.259 82.3172 688.554 88.6647C678.934 95.5299 676.266 106.729 673.384 118.83C670.48 131.024 667.357 144.133 656.684 154.648C635.417 175.598 539.815 175.864 539.815 175.864C539.815 175.864 444.212 175.571 422.945 154.621C412.272 144.106 409.15 130.996 406.245 118.803C403.363 106.702 400.696 95.5027 391.075 88.6374C373.37 82.2899 369.829 78.1719 366.288 64.2178ZM430.028 152.109C458.357 140.952 522.097 140.952 539.815 140.952C557.532 140.952 621.248 141.006 649.602 152.136C656.156 140.952 606.885 134.002 539.703 134.002C472.521 134.002 423.489 140.952 430.028 152.109ZM539.815 147.821C522.097 147.821 444.974 148.029 451.274 158.78C461.898 164.823 511.426 168.86 539.815 168.86C568.204 168.86 617.707 165.425 628.355 158.808C635.413 148.966 557.532 147.821 539.815 147.821Z" fill="white"/>
<path d="M539.814 175.864L539.822 178.153H539.841C539.853 178.153 539.871 178.152 539.895 178.152C539.942 178.152 540.012 178.152 540.104 178.151C540.288 178.15 540.561 178.148 540.916 178.145C541.627 178.137 542.671 178.125 544.006 178.101C546.675 178.052 550.508 177.959 555.172 177.782C564.498 177.429 577.163 176.739 590.505 175.39C603.835 174.042 617.899 172.031 630.003 169.022C641.982 166.045 652.494 161.988 658.29 156.278C669.494 145.241 672.722 131.487 675.61 119.36C678.511 107.182 681.034 97.0004 689.641 90.7041C698.331 87.5723 703.995 84.8376 707.884 80.9199C711.689 77.0868 713.582 72.3403 715.299 65.8115C715.386 65.7659 715.479 65.7194 715.576 65.668C716.319 65.274 717.347 64.7111 718.49 64.0352C720.731 62.7105 723.591 60.8496 725.571 58.8984L725.57 58.8975C726.909 57.5877 727.928 55.3735 728.621 52.8535C729.341 50.2377 729.795 46.983 729.795 43.3135V41.0254H713.329C705.831 41.0255 700.975 42.8855 697.446 45.9453C694.801 48.2394 693.012 51.1505 691.432 53.8896C690.409 53.2295 689.034 52.4509 687.273 51.6816C682.988 49.809 676.47 48.002 667.307 48.002H660.099L659.974 48.0156C658.409 48.1883 656.809 48.9361 655.551 49.8916C654.391 50.7719 653.204 52.0723 652.732 53.6904C652.704 53.7452 652.669 53.8119 652.628 53.8896C652.485 54.1581 652.28 54.5389 652.032 54.9971C651.538 55.9121 650.88 57.122 650.222 58.3301C649.564 59.5378 648.907 60.7423 648.414 61.6445C648.168 62.0957 647.962 62.4716 647.818 62.7344C647.747 62.8655 647.691 62.9688 647.652 63.0391C647.633 63.074 647.618 63.101 647.608 63.1191C647.604 63.128 647.599 63.135 647.597 63.1396C647.595 63.1419 647.594 63.1444 647.594 63.1455V63.1465L647.593 63.1475L647.576 63.1777L647.561 63.209C647.014 64.2861 646.72 65.373 646.734 66.4639C646.749 67.5657 647.077 68.5247 647.554 69.3379C648.433 70.8396 649.915 71.9536 650.877 72.7021C651.5 73.1868 651.972 73.5581 652.343 73.9258C652.711 74.2908 652.822 74.5045 652.854 74.5957C652.859 74.6127 652.897 74.6738 652.803 74.9131C652.681 75.2193 652.354 75.7631 651.536 76.5684C650.719 77.3732 650.078 78.2588 649.744 79.2568C649.393 80.3055 649.435 81.3215 649.742 82.2422C650.03 83.1071 650.528 83.8178 650.989 84.3721C651.449 84.9252 651.984 85.4496 652.424 85.8838C653.099 86.5497 653.604 87.056 653.964 87.5723C654.05 87.6963 654.121 87.811 654.178 87.917C647.326 94.6405 641.038 100.33 631.896 100.33C629.368 100.33 626.525 99.227 623.363 97.3105C620.223 95.4071 617.042 92.8751 613.824 90.3096C610.085 87.3288 606.195 84.21 602.593 82.5049C600.766 81.6404 598.823 81.0414 596.866 81.1045C594.827 81.1702 592.942 81.9513 591.337 83.5322C584.914 89.8593 578.608 89.8506 575.238 89.8506C568.379 89.8506 563.54 88.9824 560.484 87.3252C558.999 86.5198 557.982 85.5535 557.323 84.4385C556.663 83.3219 556.28 81.9162 556.28 80.1064C556.28 79.2174 556.402 78.7049 556.512 78.4355C556.564 78.3088 556.608 78.2478 556.627 78.2246C556.644 78.2039 556.654 78.1982 556.66 78.1943C556.737 78.149 557.219 77.9882 558.582 78.3594C559.837 78.7013 561.291 79.3345 562.892 80.0527C564.395 80.7277 566.096 81.5111 567.562 81.9395C568.961 82.3485 570.415 82.775 571.77 83.0664C573.105 83.3536 574.535 83.5551 575.869 83.4092C577.264 83.2566 578.709 82.7004 579.741 81.3555C580.653 80.1671 581.016 78.6488 581.062 76.9854C581.17 76.8959 581.349 76.7678 581.628 76.6074C582.492 76.1105 583.733 75.6164 585.297 75.001C587.208 74.2488 589.567 73.3312 591.43 72.1162C593.264 70.9196 595.232 69.0297 595.232 66.1602C595.232 65.0359 594.715 64.1564 594.168 63.5479C593.637 62.9563 592.969 62.4924 592.341 62.123C591.094 61.3901 589.461 60.7271 587.975 60.1182C585.963 59.2942 584.1 58.522 582.726 57.6211C581.291 56.6806 581.067 56.0454 581.068 55.6992V55.6982C581.08 53.2252 579.905 50.7735 578.314 48.9805C576.732 47.1964 574.391 45.6847 571.731 45.6846C569.323 45.6846 567.87 46.9797 566.891 47.8018C566.174 48.4034 565.599 48.8745 564.789 49.2422C564.472 49.3862 564.098 49.5196 563.648 49.6309C563.858 48.8135 564.165 48.2019 564.506 47.707C565.189 46.7149 566.125 45.9979 567.446 45.0195C568.797 44.0189 570.54 42.7524 571.861 40.7295C573.22 38.6499 574.021 35.9721 574.021 32.2568V29.9678H571.731C567.549 29.9678 564.682 30.4872 562.539 31.3408C560.35 32.213 559.08 33.3768 558.118 34.25C557.412 34.8912 557.001 35.2477 556.476 35.5068C555.995 35.7437 555.278 35.9605 553.988 35.9619C552.773 35.9632 552.226 35.6534 551.876 35.3516C551.409 34.9481 551.05 34.3591 550.445 33.2861C549.793 32.128 548.878 30.4519 547.182 29.166C545.421 27.831 543.074 27.0834 539.815 27.085L539.816 27.084H539.813V27.085C536.556 27.0834 534.211 27.8284 532.45 29.1592C530.754 30.4416 529.838 32.1137 529.186 33.2686C528.581 34.338 528.222 34.9235 527.756 35.3252C527.406 35.6261 526.858 35.9359 525.641 35.9346C524.352 35.9332 523.635 35.7163 523.154 35.4795C522.629 35.2204 522.217 34.8639 521.511 34.2227C520.549 33.3494 519.279 32.1856 517.09 31.3135C514.947 30.4599 512.08 29.9405 507.898 29.9404H505.609V32.2295C505.609 35.9447 506.409 38.6226 507.768 40.7021C509.089 42.7251 510.832 43.9915 512.183 44.9922C513.504 45.9706 514.439 46.6876 515.123 47.6797C515.464 48.1747 515.77 48.7868 515.979 49.6045C515.531 49.4933 515.157 49.3587 514.84 49.2148C514.03 48.8472 513.455 48.376 512.738 47.7744C511.759 46.9524 510.307 45.6573 507.898 45.6572C505.239 45.6572 502.897 47.169 501.314 48.9531C499.724 50.7462 498.55 53.1979 498.562 55.6709V55.6719C498.563 56.018 498.338 56.6532 496.903 57.5938C495.529 58.4947 493.666 59.2669 491.654 60.0908C490.168 60.6998 488.534 61.3627 487.288 62.0957C486.66 62.465 485.993 62.9292 485.462 63.5205C484.915 64.129 484.397 65.0086 484.396 66.1328C484.396 69.0024 486.366 70.8923 488.2 72.0889C490.063 73.3036 492.421 74.2216 494.332 74.9736C495.896 75.5891 497.136 76.0832 498.001 76.5801C498.279 76.7402 498.457 76.8686 498.566 76.958C498.612 78.6217 498.977 80.1406 499.889 81.3291C500.921 82.6737 502.365 83.2293 503.76 83.3818C505.094 83.5278 506.524 83.3263 507.859 83.0391C509.214 82.7477 510.668 82.3211 512.067 81.9121C513.534 81.4833 515.235 80.6975 516.739 80.0205C518.34 79.2998 519.794 78.6646 521.05 78.3213C522.414 77.9482 522.893 78.1101 522.968 78.1543C522.974 78.158 522.984 78.1638 523.001 78.1846C523.021 78.2083 523.065 78.2699 523.117 78.3975C523.228 78.6694 523.349 79.1864 523.349 80.0801C523.349 81.8977 522.965 83.3067 522.306 84.4238C521.647 85.5391 520.631 86.5041 519.146 87.3076C516.091 88.9617 511.253 89.8232 504.392 89.8232C501.022 89.8232 494.715 89.8324 488.292 83.5049C486.687 81.924 484.803 81.143 482.764 81.0771C480.806 81.014 478.863 81.6129 477.036 82.4775C473.434 84.1827 469.544 87.3014 465.805 90.2822C462.587 92.8478 459.405 95.3797 456.266 97.2832C453.104 99.1997 450.261 100.303 447.733 100.303C438.591 100.303 432.303 94.6132 425.451 87.8896C425.508 87.7836 425.579 87.669 425.666 87.5449C426.026 87.0288 426.53 86.5222 427.205 85.8564C427.645 85.4223 428.18 84.8979 428.641 84.3447C429.102 83.7905 429.6 83.0796 429.888 82.2148C430.194 81.2942 430.236 80.2782 429.885 79.2295C429.551 78.2315 428.91 77.3459 428.093 76.541C427.275 75.7358 426.947 75.192 426.826 74.8857C426.732 74.6466 426.77 74.5854 426.775 74.5684C426.807 74.4772 426.919 74.2635 427.287 73.8984C427.658 73.5309 428.13 73.1594 428.753 72.6748C429.714 71.9263 431.197 70.813 432.076 69.3115C432.552 68.4983 432.88 67.5384 432.895 66.4365C432.909 65.3457 432.615 64.2588 432.068 63.1816L432.053 63.1504L432.036 63.1201V63.1191L432.035 63.1182C432.035 63.1171 432.033 63.1154 432.032 63.1133C432.03 63.1088 432.026 63.1016 432.021 63.0928C432.012 63.0746 431.997 63.0469 431.978 63.0117C431.939 62.9414 431.882 62.8384 431.811 62.707C431.667 62.4442 431.462 62.0683 431.216 61.6172C430.723 60.715 430.066 59.5113 429.408 58.3037C428.75 57.0954 428.091 55.8848 427.597 54.9697C427.349 54.5116 427.144 54.1307 427.001 53.8623C426.959 53.784 426.924 53.7171 426.896 53.6621C426.423 52.0445 425.237 50.7443 424.078 49.8643C422.819 48.9088 421.22 48.1609 419.655 47.9883L419.53 47.9746H412.322C403.159 47.9746 396.642 49.7826 392.356 51.6553C390.595 52.4248 389.219 53.202 388.196 53.8623C386.619 51.1303 384.827 48.2225 382.18 45.9277C378.648 42.8664 373.789 40.9981 366.3 40.998H349.834V43.2871C349.834 46.9564 350.288 50.2105 351.008 52.8262C351.701 55.3457 352.719 57.5603 354.058 58.8701V58.8711C356.038 60.8222 358.898 62.6831 361.139 64.0078C362.282 64.6838 363.31 65.2467 364.053 65.6406C364.149 65.6919 364.242 65.7386 364.329 65.7842C366.046 72.3131 367.94 77.0594 371.745 80.8926C375.634 84.8104 381.299 87.5458 389.989 90.6777C398.595 96.974 401.118 107.155 404.019 119.333C406.907 131.46 410.135 145.213 421.339 156.251C427.134 161.96 437.646 166.02 449.625 169C461.729 172.011 475.794 174.025 489.124 175.376C502.466 176.728 515.131 177.422 524.457 177.778C529.122 177.956 532.954 178.049 535.623 178.099C536.957 178.123 538.001 178.137 538.712 178.145C539.067 178.148 539.34 178.15 539.524 178.151C539.617 178.152 539.687 178.152 539.734 178.152C539.758 178.152 539.776 178.153 539.788 178.153H539.806L539.814 175.864ZM539.814 175.864L539.808 178.153H539.821L539.814 175.864Z" stroke="#8D7149" stroke-width="4.57784"/>
<path d="M278.291 661.852L293.081 658.249L293.095 658.245C304.98 646.464 313.892 634.711 320.193 625.331C323.727 620.069 326.44 615.553 328.395 612.197C325.022 614.122 320.482 616.794 315.186 620.282C305.755 626.493 293.931 635.293 282.051 647.07L282.047 647.084L278.291 661.852Z" fill="#8D7149"/>
<path d="M293.081 658.249L293.086 658.254L293.095 658.245L293.081 658.249ZM282.051 647.07L282.042 647.079L282.047 647.084L282.051 647.07Z" fill="#8D7149"/>
<path d="M786.919 658.249L786.914 658.254L786.905 658.245L786.919 658.249ZM797.949 647.07L797.958 647.079L797.953 647.084L797.949 647.07Z" fill="#8D7149"/>
<path d="M801.709 661.852L786.919 658.249L786.905 658.245C775.02 646.464 766.108 634.711 759.807 625.331C756.273 620.069 753.56 615.553 751.605 612.197C754.978 614.122 759.518 616.794 764.814 620.282C774.245 626.493 786.069 635.293 797.949 647.07L797.953 647.084L801.709 661.852Z" fill="#8D7149"/>
<mask id="path-14-outside-1_489_87" maskUnits="userSpaceOnUse" x="347.123" y="642.389" width="385" height="224" fill="black">
<rect fill="white" x="347.123" y="642.389" width="385" height="224"/>
<path d="M352.123 754.893C352.123 771.518 373.214 797.9 406.858 820.297V689.211C373.218 711.751 352.123 738.272 352.123 754.893Z"/>
<path d="M727.506 754.893C727.506 738.272 706.406 711.751 672.759 689.211V820.297C706.41 797.9 727.506 771.518 727.506 754.893Z"/>
<path fill-rule="evenodd" clip-rule="evenodd" d="M438.131 837.988C467.649 852.034 502.679 861.809 539.803 861.809C576.927 861.809 611.961 852.034 641.483 837.988V671.397C611.955 657.246 576.919 647.389 539.803 647.389C502.687 647.389 467.654 657.246 438.131 671.397L438.131 837.988ZM524.052 743.33C524.055 738.401 534.178 738.398 534.178 743.33L534.225 745.703C534.244 746.711 535.114 747.518 536.18 747.518H542.395C543.489 747.518 544.37 746.669 544.35 745.635L544.305 743.33C544.309 738.401 554.432 738.398 554.432 743.33L554.478 745.703C554.498 746.711 555.367 747.518 556.433 747.518H562.649C563.743 747.518 564.624 746.669 564.604 745.635L564.558 743.33C564.562 738.401 574.685 738.398 574.685 743.33L574.732 745.703C574.751 746.711 575.621 747.518 576.686 747.518H582.902C583.996 747.518 584.877 746.669 584.857 745.635L584.812 743.33C584.815 738.401 594.939 738.398 594.939 743.33L594.985 745.703C595.005 746.711 595.874 747.518 596.94 747.518H603.157C604.252 747.518 605.133 746.668 605.112 745.633L605.065 743.33C605.065 738.398 615.188 738.398 615.195 743.33L615.238 745.7C615.256 746.709 616.126 747.518 617.193 747.518H620.068C623.593 747.513 625.336 751.216 625.315 754.919C625.294 758.618 623.514 762.317 619.994 762.32H617.149C616.07 762.32 615.195 763.146 615.193 764.166L615.191 766.017C615.198 770.949 605.064 770.941 605.068 766.017L605.07 764.17C605.071 763.149 604.195 762.32 603.114 762.32H596.902C595.823 762.32 594.947 763.146 594.946 764.167L594.945 766.017C594.945 770.949 584.815 770.939 584.822 766.017L584.824 764.17C584.825 763.148 583.949 762.32 582.868 762.32H576.657C575.577 762.32 574.702 763.147 574.701 764.167L574.7 766.017C574.7 770.949 564.571 770.939 564.578 766.017L564.58 764.169C564.58 763.148 563.705 762.32 562.624 762.32H556.413C555.334 762.32 554.459 763.147 554.458 764.167L554.457 766.017C554.457 770.949 544.33 770.939 544.337 766.017L544.337 764.169C544.338 763.148 543.462 762.32 542.382 762.32H536.172C535.093 762.32 534.217 763.147 534.217 764.168L534.217 766.017C534.217 770.949 524.09 770.939 524.097 766.017L524.097 764.168C524.097 763.148 523.222 762.32 522.142 762.32H515.933C514.853 762.32 513.977 763.147 513.978 764.168L513.978 766.017C513.97 770.949 503.862 770.946 503.858 766.017L503.858 764.168C503.858 763.147 502.982 762.32 501.903 762.32H495.693C494.613 762.32 493.737 763.148 493.738 764.169L493.738 766.017C493.742 770.946 483.621 770.941 483.618 766.017L483.617 764.168C483.617 763.147 482.741 762.32 481.662 762.32H475.451C474.371 762.32 473.495 763.148 473.496 764.169L473.497 766.017C473.501 770.946 463.372 770.951 463.376 766.017L463.374 764.167C463.374 763.147 462.499 762.32 461.419 762.32H458.498C454.975 762.32 453.233 758.619 453.254 754.919C453.275 751.221 455.056 747.522 458.579 747.518H461.387C462.48 747.518 463.361 746.67 463.342 745.636L463.299 743.33C463.299 738.398 473.429 738.403 473.422 743.33L473.466 745.702C473.485 746.71 474.355 747.518 475.421 747.518H481.635C482.729 747.518 483.61 746.669 483.59 745.635L483.545 743.33C483.552 738.403 493.675 738.401 493.672 743.33L493.72 745.705C493.741 746.712 494.61 747.518 495.675 747.518H501.892C502.986 747.518 503.867 746.669 503.847 745.635L503.802 743.33C503.802 738.393 513.936 738.408 513.929 743.33L513.973 745.702C513.992 746.71 514.861 747.518 515.928 747.518H522.142C523.236 747.518 524.117 746.669 524.097 745.635L524.052 743.33Z"/>
<path d="M524.052 743.33C524.055 738.401 534.178 738.398 534.178 743.33L534.225 745.703C534.244 746.711 535.114 747.518 536.18 747.518H542.395C543.489 747.518 544.37 746.669 544.35 745.635L544.305 743.33C544.309 738.401 554.432 738.398 554.432 743.33L554.478 745.703C554.498 746.711 555.367 747.518 556.433 747.518H562.649C563.743 747.518 564.624 746.669 564.604 745.635L564.558 743.33C564.562 738.401 574.685 738.398 574.685 743.33L574.732 745.703C574.751 746.711 575.621 747.518 576.686 747.518H582.902C583.996 747.518 584.877 746.669 584.857 745.635L584.812 743.33C584.815 738.401 594.939 738.398 594.939 743.33L594.985 745.703C595.005 746.711 595.874 747.518 596.94 747.518H603.157C604.252 747.518 605.133 746.668 605.112 745.633L605.065 743.33C605.065 738.398 615.188 738.398 615.195 743.33L615.238 745.7C615.256 746.709 616.126 747.518 617.193 747.518H620.068C623.593 747.513 625.336 751.216 625.315 754.919C625.294 758.618 623.514 762.317 619.994 762.32H617.149C616.07 762.32 615.195 763.146 615.193 764.166L615.191 766.017C615.198 770.949 605.064 770.941 605.068 766.017L605.07 764.17C605.071 763.149 604.195 762.32 603.114 762.32H596.902C595.823 762.32 594.947 763.146 594.946 764.167L594.945 766.017C594.945 770.949 584.815 770.939 584.822 766.017L584.824 764.17C584.825 763.148 583.949 762.32 582.868 762.32H576.657C575.577 762.32 574.702 763.147 574.701 764.167L574.7 766.017C574.7 770.949 564.571 770.939 564.578 766.017L564.58 764.169C564.58 763.148 563.705 762.32 562.624 762.32H556.413C555.334 762.32 554.459 763.147 554.458 764.167L554.457 766.017C554.457 770.949 544.33 770.939 544.337 766.017L544.337 764.169C544.338 763.148 543.462 762.32 542.382 762.32H536.172C535.093 762.32 534.217 763.147 534.217 764.168L534.217 766.017C534.217 770.949 524.09 770.939 524.097 766.017L524.097 764.168C524.097 763.148 523.222 762.32 522.142 762.32H515.933C514.853 762.32 513.977 763.147 513.978 764.168L513.978 766.017C513.97 770.949 503.862 770.946 503.858 766.017L503.858 764.168C503.858 763.147 502.982 762.32 501.903 762.32H495.693C494.613 762.32 493.737 763.148 493.738 764.169L493.738 766.017C493.742 770.946 483.621 770.941 483.618 766.017L483.617 764.168C483.617 763.147 482.741 762.32 481.662 762.32H475.451C474.371 762.32 473.495 763.148 473.496 764.169L473.497 766.017C473.501 770.946 463.372 770.951 463.376 766.017L463.374 764.167C463.374 763.147 462.499 762.32 461.419 762.32H458.498C454.975 762.32 453.233 758.619 453.254 754.919C453.275 751.221 455.056 747.522 458.579 747.518H461.387C462.48 747.518 463.361 746.67 463.342 745.636L463.299 743.33C463.299 738.398 473.429 738.403 473.422 743.33L473.466 745.702C473.485 746.71 474.355 747.518 475.421 747.518H481.635C482.729 747.518 483.61 746.669 483.59 745.635L483.545 743.33C483.552 738.403 493.675 738.401 493.672 743.33L493.72 745.705C493.741 746.712 494.61 747.518 495.675 747.518H501.892C502.986 747.518 503.867 746.669 503.847 745.635L503.802 743.33C503.802 738.393 513.936 738.408 513.929 743.33L513.973 745.702C513.992 746.71 514.861 747.518 515.928 747.518H522.142C523.236 747.518 524.117 746.669 524.097 745.635L524.052 743.33Z"/>
<path d="M406.858 820.297C416.348 826.614 426.836 832.614 438.131 837.988L438.131 671.397C426.836 676.81 416.348 682.852 406.858 689.211V820.297Z"/>
<path d="M641.483 671.397V837.988C652.779 832.614 663.269 826.614 672.759 820.297V689.211C663.268 682.852 652.779 676.81 641.483 671.397Z"/>
</mask>
<path d="M352.123 754.893C352.123 771.518 373.214 797.9 406.858 820.297V689.211C373.218 711.751 352.123 738.272 352.123 754.893Z" fill="#492820"/>
<path d="M727.506 754.893C727.506 738.272 706.406 711.751 672.759 689.211V820.297C706.41 797.9 727.506 771.518 727.506 754.893Z" fill="#492820"/>
<path fill-rule="evenodd" clip-rule="evenodd" d="M438.131 837.988C467.649 852.034 502.679 861.809 539.803 861.809C576.927 861.809 611.961 852.034 641.483 837.988V671.397C611.955 657.246 576.919 647.389 539.803 647.389C502.687 647.389 467.654 657.246 438.131 671.397L438.131 837.988ZM524.052 743.33C524.055 738.401 534.178 738.398 534.178 743.33L534.225 745.703C534.244 746.711 535.114 747.518 536.18 747.518H542.395C543.489 747.518 544.37 746.669 544.35 745.635L544.305 743.33C544.309 738.401 554.432 738.398 554.432 743.33L554.478 745.703C554.498 746.711 555.367 747.518 556.433 747.518H562.649C563.743 747.518 564.624 746.669 564.604 745.635L564.558 743.33C564.562 738.401 574.685 738.398 574.685 743.33L574.732 745.703C574.751 746.711 575.621 747.518 576.686 747.518H582.902C583.996 747.518 584.877 746.669 584.857 745.635L584.812 743.33C584.815 738.401 594.939 738.398 594.939 743.33L594.985 745.703C595.005 746.711 595.874 747.518 596.94 747.518H603.157C604.252 747.518 605.133 746.668 605.112 745.633L605.065 743.33C605.065 738.398 615.188 738.398 615.195 743.33L615.238 745.7C615.256 746.709 616.126 747.518 617.193 747.518H620.068C623.593 747.513 625.336 751.216 625.315 754.919C625.294 758.618 623.514 762.317 619.994 762.32H617.149C616.07 762.32 615.195 763.146 615.193 764.166L615.191 766.017C615.198 770.949 605.064 770.941 605.068 766.017L605.07 764.17C605.071 763.149 604.195 762.32 603.114 762.32H596.902C595.823 762.32 594.947 763.146 594.946 764.167L594.945 766.017C594.945 770.949 584.815 770.939 584.822 766.017L584.824 764.17C584.825 763.148 583.949 762.32 582.868 762.32H576.657C575.577 762.32 574.702 763.147 574.701 764.167L574.7 766.017C574.7 770.949 564.571 770.939 564.578 766.017L564.58 764.169C564.58 763.148 563.705 762.32 562.624 762.32H556.413C555.334 762.32 554.459 763.147 554.458 764.167L554.457 766.017C554.457 770.949 544.33 770.939 544.337 766.017L544.337 764.169C544.338 763.148 543.462 762.32 542.382 762.32H536.172C535.093 762.32 534.217 763.147 534.217 764.168L534.217 766.017C534.217 770.949 524.09 770.939 524.097 766.017L524.097 764.168C524.097 763.148 523.222 762.32 522.142 762.32H515.933C514.853 762.32 513.977 763.147 513.978 764.168L513.978 766.017C513.97 770.949 503.862 770.946 503.858 766.017L503.858 764.168C503.858 763.147 502.982 762.32 501.903 762.32H495.693C494.613 762.32 493.737 763.148 493.738 764.169L493.738 766.017C493.742 770.946 483.621 770.941 483.618 766.017L483.617 764.168C483.617 763.147 482.741 762.32 481.662 762.32H475.451C474.371 762.32 473.495 763.148 473.496 764.169L473.497 766.017C473.501 770.946 463.372 770.951 463.376 766.017L463.374 764.167C463.374 763.147 462.499 762.32 461.419 762.32H458.498C454.975 762.32 453.233 758.619 453.254 754.919C453.275 751.221 455.056 747.522 458.579 747.518H461.387C462.48 747.518 463.361 746.67 463.342 745.636L463.299 743.33C463.299 738.398 473.429 738.403 473.422 743.33L473.466 745.702C473.485 746.71 474.355 747.518 475.421 747.518H481.635C482.729 747.518 483.61 746.669 483.59 745.635L483.545 743.33C483.552 738.403 493.675 738.401 493.672 743.33L493.72 745.705C493.741 746.712 494.61 747.518 495.675 747.518H501.892C502.986 747.518 503.867 746.669 503.847 745.635L503.802 743.33C503.802 738.393 513.936 738.408 513.929 743.33L513.973 745.702C513.992 746.71 514.861 747.518 515.928 747.518H522.142C523.236 747.518 524.117 746.669 524.097 745.635L524.052 743.33Z" fill="#492820"/>
<path d="M524.052 743.33C524.055 738.401 534.178 738.398 534.178 743.33L534.225 745.703C534.244 746.711 535.114 747.518 536.18 747.518H542.395C543.489 747.518 544.37 746.669 544.35 745.635L544.305 743.33C544.309 738.401 554.432 738.398 554.432 743.33L554.478 745.703C554.498 746.711 555.367 747.518 556.433 747.518H562.649C563.743 747.518 564.624 746.669 564.604 745.635L564.558 743.33C564.562 738.401 574.685 738.398 574.685 743.33L574.732 745.703C574.751 746.711 575.621 747.518 576.686 747.518H582.902C583.996 747.518 584.877 746.669 584.857 745.635L584.812 743.33C584.815 738.401 594.939 738.398 594.939 743.33L594.985 745.703C595.005 746.711 595.874 747.518 596.94 747.518H603.157C604.252 747.518 605.133 746.668 605.112 745.633L605.065 743.33C605.065 738.398 615.188 738.398 615.195 743.33L615.238 745.7C615.256 746.709 616.126 747.518 617.193 747.518H620.068C623.593 747.513 625.336 751.216 625.315 754.919C625.294 758.618 623.514 762.317 619.994 762.32H617.149C616.07 762.32 615.195 763.146 615.193 764.166L615.191 766.017C615.198 770.949 605.064 770.941 605.068 766.017L605.07 764.17C605.071 763.149 604.195 762.32 603.114 762.32H596.902C595.823 762.32 594.947 763.146 594.946 764.167L594.945 766.017C594.945 770.949 584.815 770.939 584.822 766.017L584.824 764.17C584.825 763.148 583.949 762.32 582.868 762.32H576.657C575.577 762.32 574.702 763.147 574.701 764.167L574.7 766.017C574.7 770.949 564.571 770.939 564.578 766.017L564.58 764.169C564.58 763.148 563.705 762.32 562.624 762.32H556.413C555.334 762.32 554.459 763.147 554.458 764.167L554.457 766.017C554.457 770.949 544.33 770.939 544.337 766.017L544.337 764.169C544.338 763.148 543.462 762.32 542.382 762.32H536.172C535.093 762.32 534.217 763.147 534.217 764.168L534.217 766.017C534.217 770.949 524.09 770.939 524.097 766.017L524.097 764.168C524.097 763.148 523.222 762.32 522.142 762.32H515.933C514.853 762.32 513.977 763.147 513.978 764.168L513.978 766.017C513.97 770.949 503.862 770.946 503.858 766.017L503.858 764.168C503.858 763.147 502.982 762.32 501.903 762.32H495.693C494.613 762.32 493.737 763.148 493.738 764.169L493.738 766.017C493.742 770.946 483.621 770.941 483.618 766.017L483.617 764.168C483.617 763.147 482.741 762.32 481.662 762.32H475.451C474.371 762.32 473.495 763.148 473.496 764.169L473.497 766.017C473.501 770.946 463.372 770.951 463.376 766.017L463.374 764.167C463.374 763.147 462.499 762.32 461.419 762.32H458.498C454.975 762.32 453.233 758.619 453.254 754.919C453.275 751.221 455.056 747.522 458.579 747.518H461.387C462.48 747.518 463.361 746.67 463.342 745.636L463.299 743.33C463.299 738.398 473.429 738.403 473.422 743.33L473.466 745.702C473.485 746.71 474.355 747.518 475.421 747.518H481.635C482.729 747.518 483.61 746.669 483.59 745.635L483.545 743.33C483.552 738.403 493.675 738.401 493.672 743.33L493.72 745.705C493.741 746.712 494.61 747.518 495.675 747.518H501.892C502.986 747.518 503.867 746.669 503.847 745.635L503.802 743.33C503.802 738.393 513.936 738.408 513.929 743.33L513.973 745.702C513.992 746.71 514.861 747.518 515.928 747.518H522.142C523.236 747.518 524.117 746.669 524.097 745.635L524.052 743.33Z" fill="white"/>
<path d="M406.858 820.297C416.348 826.614 426.836 832.614 438.131 837.988L438.131 671.397C426.836 676.81 416.348 682.852 406.858 689.211V820.297Z" fill="white"/>
<path d="M641.483 671.397V837.988C652.779 832.614 663.269 826.614 672.759 820.297V689.211C663.268 682.852 652.779 676.81 641.483 671.397Z" fill="white"/>
<path d="M524.052 743.33L521.763 743.329L521.763 743.352L521.763 743.375L524.052 743.33ZM534.178 743.33H531.889V743.353L531.89 743.375L534.178 743.33ZM605.065 743.33H602.776V743.354L602.777 743.377L605.065 743.33ZM615.195 743.33L612.907 743.333V743.352L612.907 743.371L615.195 743.33ZM620.068 747.518V749.807L620.071 749.806L620.068 747.518ZM619.994 762.32V764.609H619.996L619.994 762.32ZM615.191 766.017L612.902 766.014V766.02L615.191 766.017ZM605.068 766.017L602.779 766.014V766.015L605.068 766.017ZM534.217 766.017L531.928 766.016V766.017H534.217ZM524.097 766.017L526.386 766.02V766.017L524.097 766.017ZM513.978 766.017L516.266 766.02V766.017L513.978 766.017ZM503.858 766.017L501.569 766.017V766.018L503.858 766.017ZM493.738 766.017L491.449 766.017V766.018L493.738 766.017ZM483.618 766.017L481.329 766.018V766.018L483.618 766.017ZM473.497 766.017L471.208 766.018V766.018L473.497 766.017ZM463.376 766.017L465.665 766.018L465.665 766.015L463.376 766.017ZM458.579 747.518V745.229L458.576 745.229L458.579 747.518ZM463.299 743.33H461.01V743.352L461.01 743.373L463.299 743.33ZM473.422 743.33L471.133 743.327L471.133 743.35L471.133 743.373L473.422 743.33ZM483.545 743.33L481.256 743.327L481.256 743.351L481.257 743.375L483.545 743.33ZM493.672 743.33L491.383 743.329L491.383 743.353L491.383 743.377L493.672 743.33ZM503.802 743.33H501.513V743.353L501.513 743.375L503.802 743.33ZM513.929 743.33L511.64 743.327L511.64 743.35L511.64 743.373L513.929 743.33ZM544.305 743.33L542.016 743.329L542.016 743.352L542.017 743.375L544.305 743.33ZM554.432 743.33H552.143V743.353L552.143 743.375L554.432 743.33ZM554.457 766.017L552.168 766.016V766.017H554.457ZM544.337 766.017L546.626 766.02V766.018L544.337 766.017ZM564.558 743.33L562.27 743.329L562.27 743.352L562.27 743.375L564.558 743.33ZM574.685 743.33H572.396V743.353L572.397 743.375L574.685 743.33ZM574.7 766.017L572.411 766.015V766.017H574.7ZM564.578 766.017L566.867 766.02V766.018L564.578 766.017ZM584.812 743.33L582.523 743.329L582.523 743.352L582.523 743.375L584.812 743.33ZM594.939 743.33H592.65V743.353L592.65 743.375L594.939 743.33ZM594.945 766.017L592.656 766.014V766.017H594.945ZM584.822 766.017L587.111 766.02V766.019L584.822 766.017ZM453.254 754.919L455.543 754.932L453.254 754.919ZM625.315 754.919L627.604 754.932L625.315 754.919ZM584.824 764.17L582.535 764.168V764.168L584.824 764.17ZM594.985 745.703L597.273 745.659V745.659L594.985 745.703ZM564.58 764.169L566.868 764.171V764.171L564.58 764.169ZM574.701 764.167L576.99 764.169V764.169L574.701 764.167ZM574.732 745.703L577.02 745.659V745.659L574.732 745.703ZM544.35 745.635L546.639 745.59V745.59L544.35 745.635ZM605.112 745.633L602.824 745.68V745.68L605.112 745.633ZM544.337 764.169L546.626 764.17V764.17L544.337 764.169ZM554.478 745.703L556.767 745.659V745.659L554.478 745.703ZM513.973 745.702L516.261 745.659V745.659L513.973 745.702ZM493.72 745.705L496.009 745.658V745.658L493.72 745.705ZM473.466 745.702L471.178 745.745V745.745L473.466 745.702ZM463.342 745.636L465.63 745.594V745.594L463.342 745.636ZM463.374 764.167L461.086 764.169V764.169L463.374 764.167ZM493.738 764.169L491.449 764.169V764.169L493.738 764.169ZM503.847 745.635L501.559 745.68V745.68L503.847 745.635ZM594.946 764.167L592.657 764.164V764.164L594.946 764.167ZM524.097 764.168L526.386 764.169V764.169L524.097 764.168ZM524.097 745.635L521.808 745.68V745.68L524.097 745.635ZM584.857 745.635L587.145 745.59V745.59L584.857 745.635ZM503.858 764.168L501.569 764.168V764.168L503.858 764.168ZM615.193 764.166L617.482 764.169V764.169L615.193 764.166ZM513.978 764.168L511.689 764.168V764.168L513.978 764.168ZM615.238 745.7L617.526 745.659V745.659L615.238 745.7ZM483.59 745.635L481.302 745.68V745.68L483.59 745.635ZM564.604 745.635L562.315 745.68V745.68L564.604 745.635ZM605.07 764.17L602.781 764.168V764.168L605.07 764.17ZM554.458 764.167L552.169 764.166V764.166L554.458 764.167ZM483.617 764.168L481.328 764.169V764.169L483.617 764.168ZM534.217 764.168L536.506 764.168V764.168L534.217 764.168ZM473.496 764.169L471.207 764.171V764.171L473.496 764.169ZM534.225 745.703L531.936 745.748V745.748L534.225 745.703ZM641.483 837.988H643.771V671.397H641.483H639.194V837.988H641.483ZM672.759 689.211H670.471V820.297H672.759H675.048V689.211H672.759ZM406.858 820.297H409.147V689.211H406.858H404.57V820.297H406.858ZM438.131 837.988H440.42C440.42 836.342 440.42 726.241 440.42 671.397H438.131L435.842 671.397C435.842 726.241 435.842 836.342 435.842 837.988H438.131ZM438.131 837.988H440.42L440.42 671.397H438.131L435.842 671.397L435.842 837.988H438.131ZM524.052 743.33L526.341 743.332C526.341 743.015 526.454 742.754 526.882 742.477C527.375 742.156 528.18 741.921 529.117 741.921C530.054 741.921 530.857 742.156 531.35 742.476C531.776 742.753 531.889 743.013 531.889 743.33H534.178H536.467C536.467 741.182 535.315 739.592 533.843 738.637C532.438 737.724 530.71 737.343 529.116 737.343C527.522 737.343 525.795 737.725 524.389 738.637C522.918 739.592 521.764 741.18 521.763 743.329L524.052 743.33ZM534.178 743.33L531.89 743.375L531.936 745.748L534.225 745.703L536.513 745.659L536.467 743.285L534.178 743.33ZM605.112 745.633L607.401 745.587L607.354 743.283L605.065 743.33L602.777 743.377L602.824 745.68L605.112 745.633ZM605.065 743.33H607.354C607.354 743.013 607.467 742.752 607.894 742.475C608.387 742.155 609.191 741.92 610.128 741.92C611.065 741.92 611.869 742.155 612.364 742.476C612.792 742.754 612.906 743.015 612.907 743.333L615.195 743.33L617.484 743.327C617.481 741.179 616.327 739.591 614.856 738.636C613.45 737.723 611.722 737.342 610.128 737.342C608.533 737.342 606.806 737.723 605.4 738.636C603.928 739.592 602.776 741.182 602.776 743.33H605.065ZM615.195 743.33L612.907 743.371L612.949 745.741L615.238 745.7L617.526 745.659L617.484 743.289L615.195 743.33ZM617.193 747.518V749.807H620.068V747.518V745.229H617.193V747.518ZM619.994 762.32V760.031H617.149V762.32V764.609H619.994V762.32ZM615.193 764.166L612.905 764.163L612.902 766.014L615.191 766.017L617.48 766.02L617.482 764.169L615.193 764.166ZM615.191 766.017L612.902 766.02C612.903 766.336 612.791 766.594 612.366 766.87C611.874 767.189 611.07 767.424 610.132 767.424C609.194 767.424 608.389 767.188 607.895 766.868C607.467 766.59 607.356 766.331 607.357 766.018L605.068 766.017L602.779 766.015C602.777 768.164 603.932 769.753 605.403 770.708C606.808 771.62 608.535 772.001 610.13 772.002C611.724 772.003 613.452 771.622 614.858 770.71C616.331 769.754 617.483 768.164 617.48 766.013L615.191 766.017ZM605.068 766.017L607.357 766.019L607.359 764.173L605.07 764.17L602.781 764.168L602.779 766.014L605.068 766.017ZM534.217 764.168L531.928 764.167L531.928 766.016L534.217 766.017L536.505 766.017L536.506 764.168L534.217 764.168ZM534.217 766.017H531.928C531.928 766.334 531.815 766.593 531.389 766.869C530.896 767.189 530.092 767.424 529.155 767.423C528.218 767.423 527.414 767.187 526.922 766.867C526.496 766.591 526.385 766.333 526.386 766.02L524.097 766.017L521.808 766.013C521.805 768.162 522.958 769.751 524.428 770.706C525.833 771.619 527.559 772 529.153 772.001C530.747 772.002 532.474 771.622 533.88 770.71C535.352 769.755 536.505 768.166 536.505 766.017H534.217ZM524.097 766.017L526.386 766.017L526.386 764.169L524.097 764.168L521.808 764.168L521.808 766.017L524.097 766.017ZM522.142 762.32V760.031H515.933V762.32V764.609H522.142V762.32ZM513.978 764.168L511.689 764.168L511.689 766.017L513.978 766.017L516.266 766.017L516.266 764.168L513.978 764.168ZM513.978 766.017L511.689 766.013C511.688 766.333 511.573 766.594 511.147 766.871C510.654 767.191 509.852 767.426 508.917 767.426C507.982 767.426 507.179 767.191 506.687 766.871C506.261 766.594 506.147 766.333 506.147 766.015L503.858 766.017L501.569 766.018C501.571 768.165 502.722 769.753 504.192 770.709C505.597 771.622 507.323 772.004 508.916 772.004C510.51 772.004 512.236 771.623 513.641 770.71C515.112 769.755 516.263 768.167 516.266 766.02L513.978 766.017ZM503.858 766.017L506.147 766.016L506.147 764.168L503.858 764.168L501.569 764.168L501.569 766.017L503.858 766.017ZM501.903 762.32V760.031H495.693V762.32V764.609H501.903V762.32ZM493.738 764.169L491.449 764.169L491.449 766.017L493.738 766.017L496.027 766.016L496.027 764.168L493.738 764.169ZM493.738 766.017L491.449 766.018C491.45 766.335 491.337 766.593 490.912 766.869C490.421 767.189 489.618 767.423 488.681 767.423C487.745 767.423 486.941 767.188 486.447 766.867C486.02 766.59 485.907 766.33 485.907 766.015L483.618 766.017L481.329 766.018C481.331 768.166 482.484 769.753 483.955 770.708C485.36 771.619 487.087 772.001 488.68 772.001C490.274 772.001 492.001 771.621 493.406 770.709C494.877 769.753 496.029 768.164 496.027 766.015L493.738 766.017ZM483.618 766.017L485.907 766.016L485.906 764.167L483.617 764.168L481.328 764.169L481.329 766.018L483.618 766.017ZM481.662 762.32V760.031H475.451V762.32V764.609H481.662V762.32ZM473.496 764.169L471.207 764.171L471.208 766.018L473.497 766.017L475.786 766.015L475.785 764.168L473.496 764.169ZM463.376 766.017L465.665 766.015L465.663 764.166L463.374 764.167L461.086 764.169L461.087 766.018L463.376 766.017ZM458.579 747.518V749.807H461.387V747.518V745.229H458.579V747.518ZM463.342 745.636L465.63 745.594L465.587 743.287L463.299 743.33L461.01 743.373L461.053 745.679L463.342 745.636ZM473.422 743.33L471.133 743.373L471.178 745.745L473.466 745.702L475.755 745.659L475.71 743.287L473.422 743.33ZM475.421 747.518V749.807H481.635V747.518V745.229H475.421V747.518ZM483.59 745.635L485.879 745.59L485.833 743.285L483.545 743.33L481.257 743.375L481.302 745.68L483.59 745.635ZM483.545 743.33L485.834 743.333C485.834 743.018 485.948 742.757 486.376 742.479C486.871 742.158 487.676 741.923 488.613 741.923C489.55 741.923 490.353 742.158 490.845 742.477C491.271 742.754 491.383 743.012 491.383 743.329L493.672 743.33L495.961 743.332C495.962 741.183 494.81 739.594 493.338 738.638C491.933 737.725 490.206 737.345 488.612 737.345C487.018 737.345 485.291 737.726 483.885 738.638C482.414 739.592 481.259 741.179 481.256 743.327L483.545 743.33ZM493.672 743.33L491.383 743.377L491.432 745.751L493.72 745.705L496.009 745.658L495.96 743.283L493.672 743.33ZM495.675 747.518V749.807H501.892V747.518V745.229H495.675V747.518ZM503.847 745.635L506.135 745.59L506.09 743.285L503.802 743.33L501.513 743.375L501.559 745.68L503.847 745.635ZM503.802 743.33H506.091C506.091 743.012 506.204 742.752 506.631 742.476C507.124 742.156 507.928 741.921 508.866 741.922C509.804 741.923 510.609 742.158 511.102 742.479C511.53 742.756 511.64 743.015 511.64 743.327L513.929 743.33L516.218 743.333C516.221 741.184 515.067 739.595 513.596 738.64C512.191 737.727 510.464 737.345 508.87 737.344C507.275 737.343 505.547 737.722 504.14 738.635C502.666 739.59 501.513 741.18 501.513 743.33H503.802ZM513.929 743.33L511.64 743.373L511.684 745.745L513.973 745.702L516.261 745.659L516.217 743.287L513.929 743.33ZM515.928 747.518V749.807H522.142V747.518V745.229H515.928V747.518ZM524.097 745.635L526.385 745.59L526.34 743.285L524.052 743.33L521.763 743.375L521.808 745.68L524.097 745.635ZM458.498 762.32V764.609H461.419V762.32V760.031H458.498V762.32ZM544.305 743.33L546.594 743.332C546.594 743.015 546.708 742.754 547.135 742.477C547.629 742.156 548.433 741.921 549.37 741.921C550.307 741.921 551.111 742.156 551.603 742.476C552.03 742.753 552.143 743.013 552.143 743.33H554.432H556.721C556.721 741.182 555.569 739.592 554.097 738.637C552.691 737.724 550.964 737.343 549.369 737.343C547.775 737.343 546.048 737.725 544.643 738.637C543.171 739.592 542.018 741.18 542.016 743.329L544.305 743.33ZM554.432 743.33L552.143 743.375L552.19 745.748L554.478 745.703L556.767 745.659L556.72 743.285L554.432 743.33ZM554.458 764.167L552.169 764.166L552.168 766.016L554.457 766.017L556.746 766.018L556.747 764.169L554.458 764.167ZM554.457 766.017H552.168C552.168 766.334 552.056 766.593 551.629 766.869C551.137 767.189 550.333 767.424 549.395 767.423C548.458 767.423 547.654 767.187 547.162 766.867C546.736 766.59 546.625 766.332 546.626 766.02L544.337 766.017L542.048 766.013C542.045 768.162 543.198 769.751 544.668 770.706C546.073 771.619 547.799 772 549.393 772.001C550.987 772.002 552.715 771.622 554.12 770.71C555.593 769.755 556.746 768.166 556.746 766.017H554.457ZM544.337 766.017L546.626 766.018L546.626 764.17L544.337 764.169L542.048 764.168L542.048 766.016L544.337 766.017ZM544.35 745.635L546.639 745.59L546.594 743.285L544.305 743.33L542.017 743.375L542.062 745.68L544.35 745.635ZM564.558 743.33L566.847 743.332C566.848 743.015 566.961 742.754 567.389 742.477C567.882 742.156 568.687 741.921 569.623 741.921C570.56 741.921 571.364 742.156 571.857 742.476C572.283 742.753 572.396 743.013 572.396 743.33H574.685H576.974C576.974 741.182 575.822 739.592 574.35 738.637C572.944 737.724 571.217 737.343 569.623 737.343C568.029 737.343 566.301 737.725 564.896 738.637C563.424 739.592 562.271 741.18 562.27 743.329L564.558 743.33ZM574.685 743.33L572.397 743.375L572.443 745.748L574.732 745.703L577.02 745.659L576.974 743.285L574.685 743.33ZM574.701 764.167L572.412 764.165L572.411 766.015L574.7 766.017L576.989 766.018L576.99 764.169L574.701 764.167ZM574.7 766.017H572.411C572.411 766.334 572.298 766.593 571.872 766.869C571.379 767.189 570.575 767.424 569.638 767.423C568.7 767.423 567.896 767.187 567.404 766.867C566.977 766.59 566.867 766.332 566.867 766.02L564.578 766.017L562.289 766.013C562.286 768.162 563.439 769.751 564.91 770.706C566.315 771.619 568.042 772 569.635 772.001C571.229 772.002 572.957 771.622 574.363 770.71C575.836 769.755 576.989 768.166 576.989 766.017H574.7ZM564.578 766.017L566.867 766.018L566.868 764.171L564.58 764.169L562.291 764.168L562.289 766.015L564.578 766.017ZM564.604 745.635L566.892 745.59L566.847 743.285L564.558 743.33L562.27 743.375L562.315 745.68L564.604 745.635ZM584.812 743.33L587.101 743.332C587.101 743.015 587.214 742.754 587.642 742.477C588.136 742.156 588.94 741.921 589.877 741.921C590.814 741.921 591.617 742.156 592.11 742.476C592.536 742.753 592.65 743.013 592.65 743.33H594.939H597.227C597.227 741.182 596.075 739.592 594.603 738.637C593.198 737.724 591.47 737.343 589.876 737.343C588.282 737.343 586.555 737.725 585.149 738.637C583.678 739.592 582.524 741.18 582.523 743.329L584.812 743.33ZM594.939 743.33L592.65 743.375L592.696 745.748L594.985 745.703L597.273 745.659L597.227 743.285L594.939 743.33ZM594.946 764.167L592.657 764.164L592.656 766.014L594.945 766.017L597.233 766.019L597.235 764.169L594.946 764.167ZM594.945 766.017H592.656C592.656 766.333 592.543 766.593 592.117 766.869C591.624 767.189 590.819 767.424 589.882 767.423C588.944 767.423 588.14 767.187 587.647 766.867C587.221 766.59 587.111 766.332 587.111 766.02L584.822 766.017L582.533 766.013C582.53 768.162 583.683 769.751 585.154 770.707C586.559 771.619 588.286 772 589.88 772.001C591.473 772.002 593.201 771.622 594.607 770.71C596.08 769.755 597.233 768.166 597.233 766.017H594.945ZM584.822 766.017L587.111 766.019L587.113 764.172L584.824 764.17L582.535 764.168L582.533 766.015L584.822 766.017ZM584.857 745.635L587.145 745.59L587.1 743.285L584.812 743.33L582.523 743.375L582.568 745.68L584.857 745.635ZM556.413 762.32V764.609H562.624V762.32V760.031H556.413V762.32ZM576.657 762.32V764.609H582.868V762.32V760.031H576.657V762.32ZM596.902 762.32V764.609H603.114V762.32V760.031H596.902V762.32ZM603.157 747.518V745.229H596.94V747.518V749.807H603.157V747.518ZM582.902 747.518V745.229H576.686V747.518V749.807H582.902V747.518ZM562.649 747.518V745.229H556.433V747.518V749.807H562.649V747.518ZM463.299 743.33H465.588C465.588 743.013 465.701 742.754 466.127 742.477C466.621 742.157 467.425 741.922 468.362 741.922C469.3 741.922 470.104 742.158 470.596 742.477C471.022 742.754 471.133 743.013 471.133 743.327L473.422 743.33L475.711 743.333C475.714 741.184 474.562 739.594 473.09 738.638C471.685 737.726 469.958 737.344 468.364 737.344C466.769 737.344 465.042 737.724 463.636 738.636C462.163 739.592 461.01 741.181 461.01 743.33H463.299ZM473.497 766.017L471.208 766.018C471.208 766.334 471.096 766.594 470.67 766.871C470.177 767.191 469.373 767.427 468.436 767.427C467.499 767.427 466.695 767.192 466.203 766.872C465.777 766.596 465.664 766.336 465.665 766.018L463.376 766.017L461.087 766.015C461.085 768.165 462.237 769.755 463.709 770.711C465.115 771.624 466.843 772.005 468.437 772.005C470.031 772.004 471.759 771.623 473.164 770.71C474.635 769.754 475.788 768.164 475.786 766.015L473.497 766.017ZM458.498 762.32V760.031C457.679 760.031 457.029 759.653 456.484 758.788C455.898 757.857 455.534 756.463 455.543 754.932L453.254 754.919L450.965 754.906C450.953 757.075 451.449 759.382 452.61 761.226C453.812 763.136 455.794 764.609 458.498 764.609V762.32ZM453.254 754.919L455.543 754.932C455.551 753.403 455.93 752.005 456.531 751.067C457.092 750.191 457.757 749.808 458.582 749.806L458.579 747.518L458.576 745.229C455.877 745.232 453.891 746.7 452.675 748.599C451.499 750.436 450.977 752.737 450.965 754.906L453.254 754.919ZM620.068 747.518L620.071 749.806C620.89 749.805 621.54 750.182 622.084 751.047C622.67 751.979 623.035 753.374 623.026 754.906L625.315 754.919L627.604 754.932C627.616 752.761 627.119 750.453 625.958 748.608C624.755 746.697 622.771 745.225 620.065 745.229L620.068 747.518ZM625.315 754.919L623.026 754.906C623.018 756.436 622.639 757.834 622.039 758.772C621.478 759.648 620.814 760.03 619.992 760.031L619.994 762.32L619.996 764.609C622.694 764.606 624.68 763.138 625.895 761.239C627.07 759.402 627.592 757.101 627.604 754.932L625.315 754.919ZM542.395 747.518V745.229H536.18V747.518V749.807H542.395V747.518ZM536.172 762.32V764.609H542.382V762.32V760.031H536.172V762.32ZM584.824 764.17L587.113 764.172C587.115 761.766 585.091 760.031 582.868 760.031V762.32V764.609C582.818 764.609 582.745 764.588 582.678 764.524C582.609 764.459 582.535 764.333 582.535 764.168L584.824 764.17ZM594.985 745.703L592.696 745.748C592.743 748.118 594.747 749.807 596.94 749.807V747.518V745.229C596.99 745.229 597.061 745.249 597.127 745.31C597.196 745.374 597.27 745.497 597.273 745.659L594.985 745.703ZM564.58 764.169L566.868 764.171C566.87 761.765 564.846 760.031 562.624 760.031V762.32V764.609C562.574 764.609 562.501 764.588 562.434 764.524C562.365 764.459 562.291 764.333 562.291 764.168L564.58 764.169ZM574.701 764.167L576.99 764.169C576.99 764.333 576.916 764.459 576.846 764.525C576.779 764.588 576.707 764.609 576.657 764.609V762.32V760.031C574.437 760.031 572.414 761.762 572.412 764.165L574.701 764.167ZM574.732 745.703L572.443 745.748C572.489 748.118 574.493 749.807 576.686 749.807V747.518V745.229C576.736 745.229 576.807 745.249 576.874 745.31C576.942 745.374 577.017 745.497 577.02 745.659L574.732 745.703ZM544.35 745.635L542.062 745.68C542.058 745.513 542.133 745.383 542.203 745.315C542.271 745.25 542.344 745.229 542.395 745.229V747.518V749.807C544.644 749.807 546.686 748.029 546.639 745.59L544.35 745.635ZM605.112 745.633L602.824 745.68C602.82 745.513 602.895 745.383 602.965 745.315C603.033 745.25 603.106 745.229 603.157 745.229V747.518V749.807C605.408 749.807 607.45 748.027 607.401 745.587L605.112 745.633ZM544.337 764.169L546.626 764.17C546.627 761.765 544.604 760.031 542.382 760.031V762.32V764.609C542.332 764.609 542.259 764.588 542.192 764.525C542.123 764.459 542.048 764.333 542.048 764.168L544.337 764.169ZM554.478 745.703L552.19 745.748C552.236 748.118 554.24 749.807 556.433 749.807V747.518V745.229C556.483 745.229 556.554 745.249 556.62 745.31C556.689 745.374 556.763 745.497 556.767 745.659L554.478 745.703ZM513.973 745.702L511.684 745.745C511.729 748.116 513.733 749.807 515.928 749.807V747.518V745.229C515.978 745.229 516.049 745.249 516.115 745.311C516.184 745.374 516.258 745.497 516.261 745.659L513.973 745.702ZM493.72 745.705L491.432 745.751C491.48 748.12 493.483 749.807 495.675 749.807V747.518V745.229C495.725 745.229 495.796 745.249 495.862 745.31C495.931 745.374 496.005 745.496 496.009 745.658L493.72 745.705ZM473.466 745.702L471.178 745.745C471.222 748.116 473.227 749.807 475.421 749.807V747.518V745.229C475.471 745.229 475.542 745.249 475.609 745.311C475.677 745.374 475.752 745.497 475.755 745.659L473.466 745.702ZM461.387 747.518V749.807C463.635 749.807 465.676 748.031 465.63 745.594L463.342 745.636L461.053 745.679C461.05 745.512 461.125 745.383 461.195 745.315C461.262 745.25 461.336 745.229 461.387 745.229V747.518ZM463.374 764.167L465.663 764.166C465.662 761.762 463.639 760.031 461.419 760.031V762.32V764.609C461.369 764.609 461.296 764.588 461.229 764.525C461.16 764.459 461.086 764.333 461.086 764.169L463.374 764.167ZM495.693 762.32V760.031C493.471 760.031 491.448 761.765 491.449 764.169L493.738 764.169L496.027 764.168C496.027 764.333 495.952 764.459 495.883 764.525C495.816 764.588 495.744 764.609 495.693 764.609V762.32ZM501.892 747.518V749.807C504.141 749.807 506.183 748.029 506.135 745.59L503.847 745.635L501.559 745.68C501.555 745.513 501.63 745.383 501.7 745.315C501.767 745.25 501.841 745.229 501.892 745.229V747.518ZM594.946 764.167L597.235 764.169C597.235 764.333 597.161 764.459 597.091 764.525C597.024 764.588 596.952 764.609 596.902 764.609V762.32V760.031C594.682 760.031 592.66 761.762 592.657 764.164L594.946 764.167ZM524.097 764.168L526.386 764.169C526.386 761.764 524.363 760.031 522.142 760.031V762.32V764.609C522.091 764.609 522.019 764.588 521.952 764.525C521.883 764.459 521.808 764.333 521.808 764.168L524.097 764.168ZM522.142 747.518V749.807C524.391 749.807 526.433 748.029 526.385 745.59L524.097 745.635L521.808 745.68C521.805 745.513 521.879 745.383 521.949 745.315C522.017 745.25 522.091 745.229 522.142 745.229V747.518ZM584.857 745.635L582.568 745.68C582.565 745.513 582.639 745.383 582.71 745.315C582.777 745.25 582.851 745.229 582.902 745.229V747.518V749.807C585.151 749.807 587.193 748.029 587.145 745.59L584.857 745.635ZM503.858 764.168L506.147 764.168C506.146 761.764 504.124 760.031 501.903 760.031V762.32V764.609C501.852 764.609 501.78 764.588 501.713 764.525C501.644 764.459 501.569 764.333 501.569 764.168L503.858 764.168ZM617.149 762.32V760.031C614.929 760.031 612.908 761.761 612.905 764.163L615.193 764.166L617.482 764.169C617.482 764.333 617.408 764.459 617.338 764.525C617.271 764.588 617.199 764.609 617.149 764.609V762.32ZM515.933 762.32V760.031C513.712 760.031 511.689 761.764 511.689 764.168L513.978 764.168L516.266 764.168C516.266 764.333 516.192 764.459 516.123 764.525C516.056 764.588 515.983 764.609 515.933 764.609V762.32ZM615.238 745.7L612.949 745.741C612.992 748.114 614.997 749.807 617.193 749.807V747.518V745.229C617.243 745.229 617.314 745.249 617.38 745.311C617.449 745.374 617.523 745.497 617.526 745.659L615.238 745.7ZM481.635 747.518V749.807C483.884 749.807 485.926 748.029 485.879 745.59L483.59 745.635L481.302 745.68C481.298 745.513 481.373 745.383 481.443 745.315C481.51 745.25 481.584 745.229 481.635 745.229V747.518ZM564.604 745.635L562.315 745.68C562.312 745.513 562.386 745.383 562.456 745.315C562.524 745.25 562.598 745.229 562.649 745.229V747.518V749.807C564.898 749.807 566.94 748.029 566.892 745.59L564.604 745.635ZM605.07 764.17L607.359 764.173C607.361 761.766 605.337 760.031 603.114 760.031V762.32V764.609C603.064 764.609 602.991 764.588 602.924 764.524C602.855 764.459 602.781 764.332 602.781 764.168L605.07 764.17ZM554.458 764.167L556.747 764.169C556.747 764.333 556.673 764.459 556.603 764.525C556.536 764.588 556.464 764.609 556.413 764.609V762.32V760.031C554.193 760.031 552.17 761.763 552.169 764.166L554.458 764.167ZM483.617 764.168L485.906 764.167C485.905 761.763 483.882 760.031 481.662 760.031V762.32V764.609C481.611 764.609 481.539 764.588 481.472 764.525C481.403 764.459 481.328 764.333 481.328 764.169L483.617 764.168ZM534.217 764.168L536.506 764.168C536.506 764.333 536.431 764.459 536.362 764.525C536.295 764.588 536.223 764.609 536.172 764.609V762.32V760.031C533.951 760.031 531.929 761.763 531.928 764.167L534.217 764.168ZM475.451 762.32V760.031C473.229 760.031 471.206 761.765 471.207 764.171L473.496 764.169L475.785 764.168C475.785 764.333 475.711 764.459 475.641 764.524C475.574 764.588 475.502 764.609 475.451 764.609V762.32ZM534.225 745.703L531.936 745.748C531.983 748.118 533.986 749.807 536.18 749.807V747.518V745.229C536.23 745.229 536.301 745.249 536.367 745.31C536.435 745.374 536.51 745.497 536.513 745.659L534.225 745.703ZM539.803 861.809V857.231V861.809ZM438.131 837.988L440.098 833.855V833.855L438.131 837.988ZM641.483 837.988L643.449 842.122L641.483 837.988ZM641.483 671.397L639.504 675.525L641.483 671.397ZM672.759 689.211L670.212 693.014V693.014L672.759 689.211ZM672.759 820.297L670.223 816.486V816.486L672.759 820.297ZM406.858 820.297L409.395 816.486L406.858 820.297ZM406.858 689.211L409.407 693.014H409.407L406.858 689.211ZM438.131 671.397L440.109 675.525V675.525L438.131 671.397ZM539.803 861.809V857.231C503.473 857.231 469.113 847.661 440.098 833.855L438.131 837.988L436.164 842.122C466.185 856.407 501.885 866.387 539.803 866.387V861.809ZM641.483 837.988L639.516 833.855C610.497 847.661 576.133 857.231 539.803 857.231V861.809V866.387C577.721 866.387 613.424 856.407 643.449 842.122L641.483 837.988ZM539.803 647.389V651.967C576.118 651.967 610.48 661.616 639.504 675.525L641.483 671.397L643.461 667.269C613.43 652.877 577.72 642.811 539.803 642.811V647.389ZM641.483 671.397L639.504 675.525C650.601 680.843 660.9 686.776 670.212 693.014L672.759 689.211L675.307 685.407C665.636 678.928 654.956 672.778 643.461 667.269L641.483 671.397ZM672.759 689.211L670.212 693.014C686.737 704.085 700.069 716.062 709.215 727.18C718.524 738.497 722.928 748.23 722.928 754.893H727.506H732.084C732.084 744.935 725.938 733.097 716.286 721.363C706.47 709.431 692.428 696.877 675.307 685.407L672.759 689.211ZM727.506 754.893H722.928C722.928 761.554 718.529 771.252 709.223 782.514C700.08 793.579 686.75 805.486 670.223 816.486L672.759 820.297L675.296 824.108C692.419 812.711 706.463 800.228 716.281 788.346C725.935 776.662 732.084 764.857 732.084 754.893H727.506ZM672.759 820.297L670.223 816.486C660.912 822.683 650.613 828.575 639.516 833.855L641.483 837.988L643.449 842.122C654.945 836.653 665.625 830.545 675.296 824.108L672.759 820.297ZM438.131 837.988L440.098 833.855C429.002 828.575 418.704 822.683 409.395 816.486L406.858 820.297L404.322 824.108C413.991 830.545 424.67 836.653 436.164 842.122L438.131 837.988ZM406.858 820.297L409.395 816.486C392.871 805.486 379.544 793.58 370.403 782.515C361.1 771.253 356.701 761.555 356.701 754.893H352.123H347.545C347.545 764.856 353.692 776.661 363.345 788.346C373.16 800.228 387.201 812.711 404.322 824.108L406.858 820.297ZM352.123 754.893H356.701C356.701 748.229 361.104 738.496 370.411 727.179C379.555 716.061 392.884 704.085 409.407 693.014L406.858 689.211L404.31 685.408C387.193 696.877 373.154 709.431 363.34 721.364C353.689 733.098 347.545 744.936 347.545 754.893H352.123ZM406.858 689.211L409.407 693.014C418.716 686.776 429.014 680.843 440.109 675.525L438.131 671.397L436.152 667.269C424.658 672.778 413.98 678.928 404.31 685.408L406.858 689.211ZM438.131 671.397L440.109 675.525C469.129 661.616 503.488 651.967 539.803 651.967V647.389V642.811C501.886 642.811 466.179 652.877 436.152 667.269L438.131 671.397Z" fill="#8D7149" mask="url(#path-14-outside-1_489_87)"/>
</g>
</svg>
